<?xml version="1.0" encoding="UTF-8"?> <svg xmlns="http://www.w3.org/2000/svg"  xmlns:xlink="http://www.w3.org/1999/xlink" viewBox="0 0 622.29 167.32"> <defs> <style>.cls-1{fill:white;clip-rule:evenodd;}.cls-2{clip-path:url(#clip-path);}.cls-3{fill:url(#linear-gradient);}</style> <clipPath id="clip-path"> <path class="cls-1" d="M478.21,65.77a16,16,0,0,1,8.92,2.75l-1.18,3A13.25,13.25,0,0,0,478,69.15c-5.27,0-10.21,3.6-10.21,9.53V101h-3.44V74.55c0-3.38-.1-5.5-4.51-5l-.11-3c5.59-1,8,.53,8,4.56,2.25-4.13,6.44-5.62,10.52-5.4m38.9,19.69a27.67,27.67,0,0,0-12.57-3.18c-5.27,0-10.85,2.86-10.64,8.58.22,5.3,4.73,7.63,9.56,7.63,5.7,0,12-2.54,13.54-8.48V85.46Zm-14.19,16.1c-6.12,0-12.35-3.81-12.35-10.48,0-7.84,6.55-11.55,13.54-11.55a29.43,29.43,0,0,1,13,3V77.2c0-6.67-6.24-8.47-11.82-8.47A23.85,23.85,0,0,0,494,71.38l-.75-2.86a27,27,0,0,1,12.46-2.86c7.52,0,14.72,3,14.72,11.54L520.33,93c0,4.13-.21,6.46,4.4,5.93l.11,2.33c-5.91,1-7.52-1.16-7.31-6.56C515,99.76,508.73,101.56,502.92,101.56Zm56.63-27.85c-10.75-8.9-25.79-4.77-25.79,9.84,0,7.84,4.3,14.83,13,14.83,7.74,0,12.57-5.93,12.79-13.13ZM560,93c-2.37,5.93-7.53,8.47-13.76,8.47-10.42,0-16-8.26-16-17.9,0-16.2,16.76-22.66,29.34-13.44V48.5H563V94.68c0,3.17.75,4.23,4.51,3.7l.1,2.65c-5.91,1-7.62-1.06-7.62-6.35Zm44-12.07c.75-8.16-4.84-12.29-12.68-12.29s-13.22,4.56-14,12.29Zm2.9,3H577.27c0,10,6.34,14.51,15.47,14.73A32,32,0,0,0,604.88,96l.76,3a32.77,32.77,0,0,1-12.79,2.75c-11.71,0-19.66-6.77-19.12-19.16.54-10.49,7.73-16.73,17.72-16.73C602.73,65.87,608.86,72.33,606.93,83.87ZM458.34,117.45A26.58,26.58,0,0,0,448,115.22c-9,0-15.25,4.77-15.25,14.51,0,10.48,6.23,15.14,13.54,15.14a18.82,18.82,0,0,0,12-4.55Zm0,26.68a23.23,23.23,0,0,1-12.25,3.92c-9,.21-16.76-5.83-16.76-18.22,0-11.86,7.95-17.89,18.91-17.89a34.87,34.87,0,0,1,13.54,3.28v34.95c0,11.12-7.31,15.88-15.69,16a28.33,28.33,0,0,1-14.29-3.81l.86-3.18A28.29,28.29,0,0,0,446.09,163c6.77,0,12.35-3.49,12.35-12.71v-6.14Zm30.08-32.19a16.14,16.14,0,0,1,8.92,2.75l-1.18,3a13.19,13.19,0,0,0-8-2.33c-5.26,0-10.2,3.6-10.2,9.53V147.2h-3.44V120.73c0-3.39-.11-5.51-4.51-5l-.11-3c5.59-1,7.95.54,7.95,4.56C480.15,113.1,484.44,111.73,488.42,111.94Zm45.23,17.89c0-19.69-29.76-19.69-29.76,0C503.89,149.32,533.65,149.43,533.65,129.83Zm-33.2,0c0-23.82,36.75-23.82,36.75,0S500.45,153.56,500.45,129.83Zm49.21-17.15v21c0,6.88,4.62,11.12,11.39,11.12,7,.1,11.06-4.56,11.06-11.65V112.79h3.44v25.63c0,5.51.54,6.68,4.41,6l.1,2.86c-5.26.74-7.62-.11-7.62-5.62-3.23,4.77-6.77,6.25-12.25,6.25-8.81,0-14.07-6-14.07-14.29v-21Zm43.3,27c10.64,8.79,25.79,4.77,25.79-10,0-7.73-4.41-14.72-12.9-14.72-7.73,0-12.57,5.93-12.78,13.13Zm-.43-20.12c2.79-5.72,7.74-7.83,13.86-7.83,10.2,0,15.9,8.47,15.9,17.89,0,16.42-16.65,22.77-29.33,13.56v21.71h-3.44V123.16c0-5.19.43-8.79-4.51-8l-.11-2.85c5.8-1,7.63,1.48,7.63,6.24ZM140.21,78.79c-9.57-7.94-14.29-19.17-14.29-33.57a38.17,38.17,0,0,1,7.73-23.72c5.16-6.89,12-12.07,20.85-15.89A72.56,72.56,0,0,1,183.18,0a74.41,74.41,0,0,1,27.61,5.29A66.06,66.06,0,0,1,232.5,19.06c5.59,5.61,8.7,11.33,9.35,17.05a18.2,18.2,0,0,1-2.15,9.64,16.32,16.32,0,0,1-6.13,5.93,15.38,15.38,0,0,1-7.52,2A21.59,21.59,0,0,1,211.33,48a36.45,36.45,0,0,0-11-9.95c-4.3-2.65-10-3.92-17-3.92-6.66,0-12,1.17-16.12,3.39a11.13,11.13,0,0,0-6.12,10.27,10.19,10.19,0,0,0,3.12,7.52,26.1,26.1,0,0,0,9.13,5.3c4,1.58,10.42,3.7,19.34,6.46,16.76,5.29,29.33,11.86,37.6,19.69s12.36,17.58,12.36,29.55c0,10.38-2.8,19.28-8.38,26.79a51.66,51.66,0,0,1-22,17.05A75.44,75.44,0,0,1,182.86,166a83.25,83.25,0,0,1-29.54-5.3,67.63,67.63,0,0,1-22.78-13.55c-5.91-5.51-8.92-11.23-9.35-16.84A16.72,16.72,0,0,1,126,118a15.68,15.68,0,0,1,11.71-5.29c5.91,0,10.53,1.8,13.86,5.51,2.47,4,6.44,7.41,12,10.06A42.63,42.63,0,0,0,183,132.38c7.09,0,12.78-1.27,17.19-3.92s6.55-6.25,6.55-10.8a12.84,12.84,0,0,0-2.9-8.47c-1.93-2.34-4.94-4.45-9-6.36a127.8,127.8,0,0,0-17-6C162.13,92.87,149.77,86.73,140.21,78.79Zm-42.33,25A28.86,28.86,0,0,1,93.69,119,31,31,0,0,1,82.3,129.94a31.78,31.78,0,0,1-15.8,4,32.85,32.85,0,0,1-16-4A30.17,30.17,0,0,1,39.11,119,28.51,28.51,0,0,1,35,103.78V63.54a28.53,28.53,0,0,1,4.2-15.25A31.11,31.11,0,0,1,50.6,37.38a33,33,0,0,1,31.59,0A30.24,30.24,0,0,1,93.58,48.29a28.86,28.86,0,0,1,4.19,15.25Zm35,1.59V80.48a26.33,26.33,0,0,1-2.14-1.69c-9.57-7.94-14.29-19.17-14.29-33.57a38.91,38.91,0,0,1,4.29-18.43,64.47,64.47,0,0,0-21-18.32A68.5,68.5,0,0,0,66.29,0a67.59,67.59,0,0,0-33.2,8.47A64.61,64.61,0,0,0,8.91,31.24,57.16,57.16,0,0,0,0,62.38v42.35c0,12.5,2.69,23.62,8.16,33.05a57.45,57.45,0,0,0,21.92,21.81,60,60,0,0,0,29.66,7.63,51.06,51.06,0,0,0,23.85-6,58.43,58.43,0,0,0,18.91-15.25v1.48c0,5.94,1.29,10.28,4,13.24s6.34,4.45,11.18,4.45,8.48-1.59,11.28-4.87a19.61,19.61,0,0,0,2.9-5.09.51.51,0,0,1-.32-.21,25.39,25.39,0,0,1-19.77-24.67v-.53A25.18,25.18,0,0,1,132.9,105.37ZM379.58,63.54a28.52,28.52,0,0,0-4.19-15.25A30.21,30.21,0,0,0,364,37.38a32.35,32.35,0,0,0-15.79-4,31.77,31.77,0,0,0-15.79,4A30.24,30.24,0,0,0,321,48.29a29.14,29.14,0,0,0-4.19,15.25v40.24A28.59,28.59,0,0,0,321,119a30.17,30.17,0,0,0,11.39,10.91,32.58,32.58,0,0,0,16,4,31.77,31.77,0,0,0,15.79-4A30.17,30.17,0,0,0,375.61,119a29.14,29.14,0,0,0,4.19-15.25V63.54Zm2-55.07a65,65,0,0,1,24.07,22.77,58,58,0,0,1,8.92,31.14v84.93q0,8.1-4.19,13a14.36,14.36,0,0,1-11.28,4.88c-4.84,0-8.6-1.49-11.18-4.45s-3.86-7.41-3.86-13.24V146a59.65,59.65,0,0,1-18.91,15.25,50.51,50.51,0,0,1-23.85,6,60,60,0,0,1-29.66-7.62,57.41,57.41,0,0,1-21.92-21.82c-5.47-9.42-8.16-20.43-8.16-33V62.48a58,58,0,0,1,8.92-31.13A64.43,64.43,0,0,1,314.69,8.58,68.39,68.39,0,0,1,348.1.1,67,67,0,0,1,381.62,8.47ZM280.53,137.78c-5.49-9.43-8.17-20.44-8.17-33V62.38a58,58,0,0,1,8.92-31.14,62.55,62.55,0,0,1,5.37-7.41v-3.6a17,17,0,0,0-4.94-12.29,17.07,17.07,0,0,0-12.47-4.87,17.5,17.5,0,0,0-12.57,4.87,16.68,16.68,0,0,0-5.05,12.29V147.31a16.77,16.77,0,0,0,5.05,12.18,18.25,18.25,0,0,0,25,0,16.51,16.51,0,0,0,4.94-12.18v-1A53.13,53.13,0,0,1,280.53,137.78ZM440.93,66.5h13.54v2.87H440.93V88c0,10.49,5.05,12.39,14.83,9l.54,3c-11.93,4-18.81.53-18.81-12V69.37l-7.95-.22V66.5h7.95l.33-10.58H441Z"></path> </clipPath> <linearGradient id="linear-gradient" x1="1438.16" y1="-744.91" x2="1438.16" y2="-699.27" gradientTransform="translate(-1127.01 800.86)" gradientUnits="userSpaceOnUse"> <stop offset="0" stop-color="#f48220"></stop> <stop offset="1" stop-color="#f16522"></stop> </linearGradient> </defs> <g id="Layer_2" data-name="Layer 2"> <g id="Layer_1-2" data-name="Layer 1"> <g class="cls-2"> <rect class="cls-3" width="622.29" height="167.32"></rect> </g> </g> </g> </svg> 