<?xml version="1.0" encoding="UTF-8"?> <svg xmlns="http://www.w3.org/2000/svg" viewBox="0 0 4125 362"> <defs> <style>.cls-1{fill:#fff;}</style> </defs> <g id="Layer_2" data-name="Layer 2"> <g id="Spheres"> <path class="cls-1" d="M171.84,190c0-1.82,0-3.64-.1-5.46s-.09-3.64-.09-5.46q0-13.65.87-27.12a225,225,0,0,1,3.42-26.91q-4.49-.78-8.49-1.18c-2.66-.25-5.33-.51-8-.78l-8-.77q-4-.39-8.68-1.18a12.46,12.46,0,0,0-2.63,5.66,37.42,37.42,0,0,0-.49,6.24c0,3.12,0,5.17-.1,6.15s-.1,1.79-.1,2.44q-.78,7.41-1.07,14.63t-.29,14.62q0,11.72.68,23.22t1.66,23.21a6.79,6.79,0,0,1-6.24,3.9,10.41,10.41,0,0,1-5.47-1.66,8.34,8.34,0,0,1-3.7-4.39q-.78-7-1.08-14.14t-.87-14.14a47.65,47.65,0,0,1-.39-6.14V174.6q0-13.07,1.07-25.94t1.07-26.33v-3.81c0-1.23-.06-2.5-.19-3.8a11.66,11.66,0,0,1,1-4.49,3.66,3.66,0,0,1,3.71-2.34,60.94,60.94,0,0,1,8.48-2.24,42.05,42.05,0,0,1,7.51-.69,51.53,51.53,0,0,1,16.19,2.93A46.93,46.93,0,0,0,175.65,110a108.45,108.45,0,0,1,14.53,1,5.39,5.39,0,0,1,2.63,2.44,7.44,7.44,0,0,1,.68,3.22,21,21,0,0,1-.48,4.39c-.33,1.49-.62,2.89-.88,4.19a151.5,151.5,0,0,0-4.1,25.16q-1,12.69-1,25.56v9q0,4.49.19,9c0,1.3,0,2.57.1,3.81s.1,2.5.1,3.8-.07,2.83-.2,4.19a24.9,24.9,0,0,1-.78,4.2,5.78,5.78,0,0,1-5.46,3.31,7.81,7.81,0,0,1-5.46-1.95,9,9,0,0,1-3.32-4.68,21.21,21.21,0,0,1-.78-5.85c0-1.43.07-2.93.2-4.49s.19-3.05.19-4.48Z"></path> <path class="cls-1" d="M226.26,241.7a73.36,73.36,0,0,0,.69,10.44,63.65,63.65,0,0,1,.68,8.87,23.83,23.83,0,0,1-.49,4.29,18.64,18.64,0,0,1-1.66,4.88,11.51,11.51,0,0,1-3.12,3.9,7.87,7.87,0,0,1-5.07,1.56,8.8,8.8,0,0,1-5.75-2.43,7.22,7.22,0,0,1-2.83-5.56c0-.66,0-1.4.1-2.25s.16-1.72.29-2.63q-.19-3.31-.2-6.63V249.5q0-10.14.2-20.38t.19-21.36q0-8.19-.19-16.48T208.9,173q0-8.19-.68-15.9t-.68-15.89A8.12,8.12,0,0,1,209,136c1-1.17,3.15-1.76,6.54-1.76q5.44,0,7.31,2.54a21.58,21.58,0,0,1,3,6.24c1-.39,2.31-.84,3.81-1.36a11.92,11.92,0,0,1,3.8-.78h1.37a27.85,27.85,0,0,1,8,.87,29.45,29.45,0,0,1,5.47,2.44l.58.39a.4.4,0,0,1,.29.1.39.39,0,0,0,.3.1,25.84,25.84,0,0,1,6.92,5.46A39.24,39.24,0,0,1,262,158a45.6,45.6,0,0,1,3.71,9,30,30,0,0,1-.88,20.29,34.82,34.82,0,0,1-18.14,19.51,37.39,37.39,0,0,1-16.29,3.31H228.6a5.22,5.22,0,0,1-1.95-.39,5.16,5.16,0,0,0-.39,2.25V241.7Zm16.58-50.13a22.34,22.34,0,0,0,6.44-16.19,23.23,23.23,0,0,0-4.19-13.26,19.51,19.51,0,0,0-4.88-4.88,15.56,15.56,0,0,0-6.53-2.53l-2.54,1a13.46,13.46,0,0,0-2.83,1.46,16.9,16.9,0,0,0-2.05,1.47,1.64,1.64,0,0,0-.29.39,1.09,1.09,0,0,1-.49.39c-.26.26-.39,1.49-.39,3.7,0,2.47.1,5.37.3,8.68s.29,5.63.29,6.93v6.63a71.06,71.06,0,0,0,.39,7.8q.39,3.51,2,3.51a27.74,27.74,0,0,0,5.36-.48,22.86,22.86,0,0,0,5.56-2Z"></path> <path class="cls-1" d="M301.56,212.64a10.09,10.09,0,0,1-5.95-1.85q-2.64-1.86-5.56-3.61a26.5,26.5,0,0,1-9.95-9.76q-3.51-6-3.51-14.82a44.18,44.18,0,0,1,1.46-10.24q1.47-6,2.64-11a28.14,28.14,0,0,1,2.73-6,42.51,42.51,0,0,1,5.36-7.41,37.72,37.72,0,0,1,7.32-6.34,14.93,14.93,0,0,1,8.38-2.73,6.21,6.21,0,0,1,3.51,1.17,33.36,33.36,0,0,0,5.66,2.92q2.93,1.17,6,2.34t5.95,2.54a24.4,24.4,0,0,1,5.46,3.51,11.94,11.94,0,0,1,3.32,4.29q1.17,2.53,2.34,4.88a11.26,11.26,0,0,1,1.17,4c.13,1.36.19,2.76.19,4.19v3.71a30.42,30.42,0,0,1-2.43,11.21,71.55,71.55,0,0,1-5.37,10.05q-1.56,2.53-4.1,5.85a51,51,0,0,1-5.65,6.24,38.76,38.76,0,0,1-6.54,5,13.34,13.34,0,0,1-6.92,2c-.65,0-1.34,0-2-.09s-1.46-.1-2.24-.1ZM320.67,166q0-5.66-4.09-8.19a16.75,16.75,0,0,0-9-2.54,8.62,8.62,0,0,0-6.63,3,27.85,27.85,0,0,0-4.68,7.42,40.21,40.21,0,0,0-2.83,9.36,51.42,51.42,0,0,0-.88,8.68,30.83,30.83,0,0,0,.3,3.12,28.28,28.28,0,0,0,1.07,4.88,14.49,14.49,0,0,0,2.24,4.48A4.56,4.56,0,0,0,300,198.2a10.58,10.58,0,0,0,3.9-.68c1.17-.45,2.47-1,3.9-1.66a19,19,0,0,0,5.46-5.26,31.66,31.66,0,0,0,3.8-7.22,54.26,54.26,0,0,0,2.35-8.19,82.43,82.43,0,0,0,1.26-8.2Z"></path> <path class="cls-1" d="M363.78,227.07a9.72,9.72,0,0,1-4.19-.87,14,14,0,0,1-3.12-2,12.29,12.29,0,0,1-2.05-2.14c-.52-.72-.91-1.27-1.17-1.66a4.74,4.74,0,0,0-.1-.68,10.79,10.79,0,0,1-.1-1.85c0-1.18.07-2.87.2-5.08s.52-5.26,1.17-9.16V161.53c0-1.95-.07-3.73-.2-5.36s-.32-3.35-.58-5.17c0-.78-.1-2.24-.3-4.39s-.29-4.32-.29-6.53v-2.15a9.93,9.93,0,0,1,.2-2c.39-.39,1-1.14,1.95-2.24a3.82,3.82,0,0,1,2.92-1.66,18.39,18.39,0,0,1,7.61,1.66c2.47,1.1,3.83,2.76,4.1,5q.78,3.71,1.17,6.92t.49,6.64c.06,2.27.12,4.75.19,7.41s.16,5.63.29,8.87v1.76a4.72,4.72,0,0,0,1.76-1.07q1.36-1.08,4.09-3.42t6.93-6.24q4.19-3.9,10.24-9.56c-.26.13-.1-.16.49-.87a18.2,18.2,0,0,1,2.53-2.44,22.85,22.85,0,0,1,3.9-2.54,10.21,10.21,0,0,1,4.78-1.17,7.81,7.81,0,0,1,3.12.68,25.66,25.66,0,0,1,3.13,1.66l3.12,3.32v2.14a16.69,16.69,0,0,1-.39,3.42,6.12,6.12,0,0,1-2.34,3.41,96.14,96.14,0,0,1-11.32,9q-6,4.1-11.7,8.59c-.39.26-.62.48-.68.68s-.23.55-.49,1.07a7.9,7.9,0,0,0,1.75,5,32.46,32.46,0,0,0,3.71,4q5.85,5.27,11.31,9.55a72.85,72.85,0,0,0,13.66,8.2l1.75,1.36a3,3,0,0,1,.49.59,1.09,1.09,0,0,0,.49.39,1.78,1.78,0,0,0,.58,1.46,2.65,2.65,0,0,1,.59,2.05c0,1.56-1,3-2.83,4.29a13.15,13.15,0,0,1-5.56,2.34,17.32,17.32,0,0,1-5.56-1.66,69.56,69.56,0,0,1-6.53-3.41c-2.22-1.3-4.36-2.7-6.44-4.2s-3.9-2.82-5.46-4a37.52,37.52,0,0,1-4.39-4.19q-2.83-3-5.56-6.05t-5.07-5.46c-1.56-1.62-2.54-2.44-2.93-2.44s-.48,0-.29.1-.36.43-1.66,1.08v35.89a6.19,6.19,0,0,1-1.66,3.41q-1.45,1.65-4.77,1.85Z"></path> <path class="cls-1" d="M455.26,241.7a74.93,74.93,0,0,0,.68,10.44,62.25,62.25,0,0,1,.69,8.87,23.83,23.83,0,0,1-.49,4.29,19,19,0,0,1-1.66,4.88,11.51,11.51,0,0,1-3.12,3.9,7.87,7.87,0,0,1-5.07,1.56,8.8,8.8,0,0,1-5.75-2.43,7.22,7.22,0,0,1-2.83-5.56c0-.66,0-1.4.09-2.25s.17-1.72.3-2.63q-.19-3.31-.2-6.63V249.5q0-10.14.2-20.38t.19-21.36q0-8.19-.19-16.48T437.9,173q0-8.19-.68-15.9t-.68-15.89A8.06,8.06,0,0,1,438,136q1.46-1.75,6.53-1.76,5.46,0,7.32,2.54a21.58,21.58,0,0,1,3,6.24c1-.39,2.31-.84,3.81-1.36a11.92,11.92,0,0,1,3.8-.78h1.36a27.88,27.88,0,0,1,8,.87,29.08,29.08,0,0,1,5.46,2.44l.59.39a.42.42,0,0,1,.29.1.38.38,0,0,0,.29.1,25.73,25.73,0,0,1,6.93,5.46A39.65,39.65,0,0,1,491,158a45,45,0,0,1,3.7,9,32.15,32.15,0,0,1,1.37,9,32.74,32.74,0,0,1-2.24,11.31,34.82,34.82,0,0,1-18.14,19.51,37.39,37.39,0,0,1-16.29,3.31H457.6a5.22,5.22,0,0,1-2-.39,5.16,5.16,0,0,0-.39,2.25V241.7Zm16.58-50.13a22.38,22.38,0,0,0,6.44-16.19,23.23,23.23,0,0,0-4.19-13.26,19.51,19.51,0,0,0-4.88-4.88,15.55,15.55,0,0,0-6.54-2.53l-2.53,1a13.22,13.22,0,0,0-2.83,1.46,16.07,16.07,0,0,0-2.05,1.47,1.41,1.41,0,0,0-.29.39,1.09,1.09,0,0,1-.49.39c-.26.26-.39,1.49-.39,3.7,0,2.47.1,5.37.29,8.68s.3,5.63.3,6.93v6.63a71.06,71.06,0,0,0,.39,7.8q.39,3.51,1.95,3.51a27.82,27.82,0,0,0,5.36-.48,22.86,22.86,0,0,0,5.56-2Z"></path> <path class="cls-1" d="M523.14,172.85q0,2.73.1,6.63a67,67,0,0,0,.68,7.9,42.58,42.58,0,0,0,1.66,7.21,8.71,8.71,0,0,0,3,4.59,13.4,13.4,0,0,0,6.64-5.37,45.72,45.72,0,0,0,4.68-8.87,91.89,91.89,0,0,0,3.31-9.85q1.37-5,2.35-8.29a85.48,85.48,0,0,0,.78-9.07,87.69,87.69,0,0,1,.87-9.75,25.6,25.6,0,0,1,2.25-7.71,5.13,5.13,0,0,1,4.87-3.12,11.9,11.9,0,0,1,6.25,1.76,7.11,7.11,0,0,1,3.51,5.07q-.79,11.11-1.08,19.21t-.29,13.36c0,1.17,0,2.73.1,4.68s.16,4.07.29,6.34.23,4.62.29,7,.1,4.66.1,6.73q0,20.69-5,37.07a83,83,0,0,1-16.68,30c-1.17.9-2.41,1.88-3.71,2.92a29.66,29.66,0,0,1-4.48,2.93,30,30,0,0,1-5.95,2.34,28.9,28.9,0,0,1-7.9,1,10.44,10.44,0,0,1-2.83-.48,11.42,11.42,0,0,1-3.12-1.47,8.69,8.69,0,0,1-2.44-2.43,5.7,5.7,0,0,1-1-3.22c0-.78.85-1.6,2.54-2.44s3.71-1.79,6-2.83,4.71-2.21,7.12-3.51a20.73,20.73,0,0,0,6-4.68,74.39,74.39,0,0,0,12.29-23.9,94.44,94.44,0,0,0,3.51-26.23v-2.83a18.75,18.75,0,0,1,.19-2.64,1.63,1.63,0,0,0-1-.19,21,21,0,0,1-3.32,5.27,35.88,35.88,0,0,1-4.78,4.68,25.61,25.61,0,0,1-5.36,3.41,12.09,12.09,0,0,1-5.08,1.27q-7.22,0-11.5-4.68a31.26,31.26,0,0,1-6.54-11.32,60.79,60.79,0,0,1-2.92-13.85q-.69-7.22-.69-12.28c0-.78,0-1.57.1-2.35s.1-1.56.1-2.34q0-3.31-.2-6.34t-.19-6.33c0-1.57.06-3.35.19-5.37a27.31,27.31,0,0,1,1-5.75,15.71,15.71,0,0,1,2.05-4.59,3.94,3.94,0,0,1,3.41-1.85q4.49,0,6.44,1.76a8.11,8.11,0,0,1,2.53,4.38,26.62,26.62,0,0,1,.59,5.76,25.26,25.26,0,0,0,.58,5.66c-.13,1.82-.22,4.12-.29,6.92s-.1,5-.1,6.73Z"></path> <path class="cls-1" d="M684.65,160A76.14,76.14,0,0,0,686,174.7c.9,4.62,1.69,9.53,2.34,14.73a25.4,25.4,0,0,0,2.24,8,19.81,19.81,0,0,1,1.85,8.2c0,3-.87,5.26-2.63,6.82a9.23,9.23,0,0,1-6.34,2.34,7,7,0,0,1-6.34-3.8,29.35,29.35,0,0,1-3.31-8.78,74.23,74.23,0,0,1-1.47-9.75,37.16,37.16,0,0,0-1-6.73,27.34,27.34,0,0,1-1.56-6.34c-.27-2.15-.49-4.26-.69-6.34s-.39-4.16-.58-6.24a34.55,34.55,0,0,0-1.27-6.44c-1.17,2.21-2.44,4.59-3.8,7.12s-2.73,5.14-4.1,7.8-2.7,5.27-4,7.81-2.41,4.84-3.31,6.92a41.94,41.94,0,0,0-2.44,6.34q-.89,3-1.66,6t-1.76,5.85a41.52,41.52,0,0,1-2.73,6.24,11.18,11.18,0,0,1-5.07,1.17,6.76,6.76,0,0,1-5.75-2.73,19.28,19.28,0,0,1-3.12-6.82,57.57,57.57,0,0,1-1.56-8.59q-.5-4.48-1.08-8-.39-3.7-1.07-8c-.46-2.86-1-5.69-1.76-8.49s-1.49-5.43-2.34-7.9a26.09,26.09,0,0,0-2.82-6,18.21,18.21,0,0,0-4.78,6,81.57,81.57,0,0,0-3.71,8.1q-1.66,4.2-2.83,8.19a63.46,63.46,0,0,1-2.14,6.34,29.73,29.73,0,0,0-3.42,9.07c-.58,3.06-1.23,5.85-1.95,8.39a15.09,15.09,0,0,1-3.31,6.24q-2.25,2.44-7.51,2.44a5.09,5.09,0,0,1-3-1.07,9.61,9.61,0,0,1-2.44-2.64,15.41,15.41,0,0,1-1.56-3.31,10.51,10.51,0,0,1-.58-3.32,27.35,27.35,0,0,0,.49-3.9c.06-1.3.09-2.66.09-4.1,0-.39.07-1.36.2-2.92s.26-3.22.39-5,.26-3.41.39-5,.19-2.54.19-2.93q0-10.92-.19-15.7t-.39-6.53q-.2-1.75-.39-1.86c-.13-.06-.2-.61-.2-1.66a12.19,12.19,0,0,0-.68-4.09,12.17,12.17,0,0,1-.68-4.1,5.91,5.91,0,0,1,2.34-4.68,7.77,7.77,0,0,1,5.07-2,7.88,7.88,0,0,1,5.46,1.76,10,10,0,0,1,2.83,4.38,22.27,22.27,0,0,1,1.07,5.66c.13,2,.2,3.81.2,5.37a47.51,47.51,0,0,1-.29,4.87,46.62,46.62,0,0,0-.3,5.07,16.68,16.68,0,0,0,.39,3.12c.78-1.68,1.66-3.57,2.64-5.65s2-4.2,3.12-6.34,2.24-4.2,3.41-6.15a42.76,42.76,0,0,1,3.51-5.07q2.34-2.93,5.46-6.14a9.56,9.56,0,0,1,7-3.22,10.08,10.08,0,0,1,6.63,2,12.08,12.08,0,0,1,3.51,4.88,27.73,27.73,0,0,1,1.66,6.53,58.43,58.43,0,0,0,1.27,6.73q1.75,5.66,3.21,12.68t2.83,12.68c.26-.91.69-2.11,1.27-3.61s1.2-3,1.85-4.68,1.3-3.12,2-4.49,1.17-2.44,1.56-3.22c1.18-2.46,2.51-5.17,4-8.09a48.48,48.48,0,0,1,5.27-8.19,31.82,31.82,0,0,1,7-6.54,18.58,18.58,0,0,1,9.27-3.12,36.28,36.28,0,0,0,4.29,1.85,8.23,8.23,0,0,1,3.32,2.15,10.34,10.34,0,0,1,2.14,4.39,34.49,34.49,0,0,1,.78,8.39Zm-73.73-36.09a3.32,3.32,0,0,1-1.86,1.37,32.49,32.49,0,0,1-3.12,1.07,20.1,20.1,0,0,1-3.12.69,17.58,17.58,0,0,1-2.05.19c-1.17,0-2.21-.75-3.12-2.24a8.43,8.43,0,0,1-1.36-4.39c0-.65.06-1,.19-1.17q3.9-8.39,16.1-13t34-4.59a63.5,63.5,0,0,1,16.29,2.25,64.29,64.29,0,0,1,14,5.17l2.34,1.36a7.91,7.91,0,0,1,2.63,2.93,10.84,10.84,0,0,1,1.66,5.07,3.58,3.58,0,0,1-1.27,2.44,8,8,0,0,1-3.8,1.27q-2.53-1-6.83-2.25t-9.26-2.34q-5-1.06-10-1.85a58.06,58.06,0,0,0-8.88-.78,62.42,62.42,0,0,0-15.6,2.24,75.3,75.3,0,0,0-15.41,5.75Z"></path> <path class="cls-1" d="M706.89,156.85c0-3.51.12-6.89.39-10.14a40.3,40.3,0,0,1,2-9.56,2.61,2.61,0,0,1,1.07-.88,13.71,13.71,0,0,1,2.05-.88c.39-.12.81-.26,1.27-.39s1-.25,1.65-.39a15.75,15.75,0,0,1,6.25,2.34,6.31,6.31,0,0,1,3.12,5.66,23.89,23.89,0,0,1-.59,5.56,24.91,24.91,0,0,0-.58,5.75,61,61,0,0,1-.49,8.78,37.41,37.41,0,0,0-.49,5.85q0,9.38.59,17.27t1,12q3.12-.39,6.93-5.36a87.28,87.28,0,0,0,7.51-12,155.26,155.26,0,0,0,6.82-14.82q3.12-7.8,5.08-13.85a15.54,15.54,0,0,0,.68-5.07,14.52,14.52,0,0,1,.49-4.59,6.07,6.07,0,0,1,2.63-3.41q2-1.36,6.92-1.37a.94.94,0,0,1,.39.1.81.81,0,0,0,.39.1,6.71,6.71,0,0,1,3.71,1.56,11.77,11.77,0,0,1,3.12,3.12q0,11.52-.68,18a108.93,108.93,0,0,0-.68,11.22,88.7,88.7,0,0,0,1.26,16.09,27.2,27.2,0,0,0,4.2,10.83c.78.91,1.49,1.79,2.14,2.63a14.73,14.73,0,0,1,1.76,3,6.75,6.75,0,0,1-1.27,3,5.21,5.21,0,0,1-2.05,1.56,10.24,10.24,0,0,1-2.53.68,20.15,20.15,0,0,0-2.73.59,14.31,14.31,0,0,1-6.93-3.51,20,20,0,0,1-4.29-6.15,32.54,32.54,0,0,1-2.44-8c-.52-2.92-1-5.95-1.36-9.07l-.78,1.56c-1.05,2.22-2.44,5.14-4.2,8.78A82.33,82.33,0,0,1,742,204.15a42.82,42.82,0,0,1-8.1,9,15.17,15.17,0,0,1-9.85,3.8,16.35,16.35,0,0,1-9.07-2.24,14.3,14.3,0,0,1-5.27-7.32,51.6,51.6,0,0,1-2.53-13.07q-.69-8-.68-19.7a38.56,38.56,0,0,0,.39-5.46V156.85Z"></path> <path class="cls-1" d="M889.27,160a76.15,76.15,0,0,0,1.36,14.73q1.36,6.93,2.34,14.73a25.43,25.43,0,0,0,2.25,8,19.81,19.81,0,0,1,1.85,8.2q0,4.49-2.63,6.82a9.23,9.23,0,0,1-6.34,2.34,7,7,0,0,1-6.34-3.8,29.09,29.09,0,0,1-3.32-8.78,75.89,75.89,0,0,1-1.46-9.75,36.93,36.93,0,0,0-1-6.73,27.34,27.34,0,0,1-1.56-6.34q-.39-3.23-.68-6.34c-.2-2.08-.39-4.16-.59-6.24a33.72,33.72,0,0,0-1.26-6.44c-1.17,2.21-2.44,4.59-3.81,7.12s-2.73,5.14-4.09,7.8l-4,7.81q-1.95,3.79-3.32,6.92a44.19,44.19,0,0,0-2.44,6.34c-.58,2-1.14,4-1.65,6s-1.11,3.9-1.76,5.85a41.52,41.52,0,0,1-2.73,6.24,11.18,11.18,0,0,1-5.07,1.17,6.79,6.79,0,0,1-5.76-2.73,19.64,19.64,0,0,1-3.12-6.82,58.88,58.88,0,0,1-1.56-8.59q-.48-4.48-1.07-8-.39-3.7-1.07-8t-1.76-8.49c-.72-2.79-1.5-5.43-2.34-7.9a26.49,26.49,0,0,0-2.83-6,18.46,18.46,0,0,0-4.78,6,83.86,83.86,0,0,0-3.7,8.1q-1.66,4.2-2.83,8.19a63.1,63.1,0,0,1-2.15,6.34,29.7,29.7,0,0,0-3.41,9.07c-.59,3.06-1.24,5.85-1.95,8.39a15.1,15.1,0,0,1-3.32,6.24c-1.49,1.63-4,2.44-7.51,2.44a5.06,5.06,0,0,1-3-1.07,9.46,9.46,0,0,1-2.44-2.64,15.41,15.41,0,0,1-1.56-3.31,10.54,10.54,0,0,1-.59-3.32,26,26,0,0,0,.49-3.9c.07-1.3.1-2.66.1-4.1,0-.39.06-1.36.19-2.92s.26-3.22.39-5,.26-3.41.39-5,.2-2.54.2-2.93q0-10.92-.2-15.7t-.39-6.53q-.2-1.75-.39-1.86c-.13-.06-.19-.61-.19-1.66a12.45,12.45,0,0,0-.68-4.09,12.17,12.17,0,0,1-.69-4.1,5.91,5.91,0,0,1,2.34-4.68,7.79,7.79,0,0,1,5.08-2,7.88,7.88,0,0,1,5.46,1.76,10.12,10.12,0,0,1,2.83,4.38,22.72,22.72,0,0,1,1.07,5.66c.13,2,.19,3.81.19,5.37a44.82,44.82,0,0,1-.29,4.87,49.12,49.12,0,0,0-.29,5.07,16.68,16.68,0,0,0,.39,3.12l2.63-5.65c1-2.08,2-4.2,3.12-6.34s2.25-4.2,3.42-6.15a42.76,42.76,0,0,1,3.51-5.07q2.34-2.93,5.46-6.14a9.55,9.55,0,0,1,7-3.22,10.08,10.08,0,0,1,6.63,2,12.1,12.1,0,0,1,3.52,4.88,27.25,27.25,0,0,1,1.65,6.53,63.05,63.05,0,0,0,1.27,6.73q1.75,5.66,3.22,12.68t2.83,12.68c.26-.91.68-2.11,1.27-3.61s1.2-3,1.85-4.68,1.3-3.12,2-4.49,1.17-2.44,1.56-3.22c1.17-2.46,2.5-5.17,4-8.09a47.87,47.87,0,0,1,5.27-8.19,31.6,31.6,0,0,1,7-6.54,18.51,18.51,0,0,1,9.26-3.12,36.28,36.28,0,0,0,4.29,1.85,8.16,8.16,0,0,1,3.32,2.15,10.22,10.22,0,0,1,2.15,4.39,35,35,0,0,1,.78,8.39Zm-73.74-36.09a3.29,3.29,0,0,1-1.85,1.37c-1,.39-2,.75-3.12,1.07a20.62,20.62,0,0,1-3.12.69,18,18,0,0,1-2.05.19c-1.17,0-2.21-.75-3.12-2.24a8.45,8.45,0,0,1-1.37-4.39,2,2,0,0,1,.2-1.17q3.9-8.39,16.09-13t34-4.59a63.56,63.56,0,0,1,16.29,2.25,64.39,64.39,0,0,1,13.94,5.17l2.35,1.36a8,8,0,0,1,2.63,2.93,11,11,0,0,1,1.66,5.07,3.62,3.62,0,0,1-1.27,2.44,8.13,8.13,0,0,1-3.81,1.27q-2.53-1-6.82-2.25t-9.27-2.34q-5-1.06-9.95-1.85a57.83,57.83,0,0,0-8.87-.78,62.56,62.56,0,0,0-15.61,2.24,75.52,75.52,0,0,0-15.41,5.75Z"></path> <path class="cls-1" d="M909.36,179.09a58.72,58.72,0,0,1,1.85-14.53,45,45,0,0,1,5.56-13.17,31.05,31.05,0,0,1,9.17-9.46,22.42,22.42,0,0,1,12.68-3.61,23.23,23.23,0,0,1,8.87,1.56,19,19,0,0,1,6.34,4.1,16.63,16.63,0,0,1,3.8,5.75,18.12,18.12,0,0,1,1.27,6.73,23.67,23.67,0,0,1-6.43,16.19,23.81,23.81,0,0,1-7.71,5.36,27.55,27.55,0,0,1-10.44,2.25,16.09,16.09,0,0,1-4.48-.2c-1.3-.26-2.8-.65-4.49-1.17a8.68,8.68,0,0,0-.19,1.66v1.07q.18,7.23,2.34,11.32a19.19,19.19,0,0,0,4.68,6.14,12.86,12.86,0,0,0,4.88,2.63,16.55,16.55,0,0,0,3.12.59,17.39,17.39,0,0,0,10-2.73l8.88-6,2.14.88a5.18,5.18,0,0,1,2.15,1.85,18.07,18.07,0,0,0,.39,1.86,8,8,0,0,1,.19,2,9.18,9.18,0,0,1-1.46,4.59,17,17,0,0,1-2.83,3.22,26.71,26.71,0,0,1-9.46,5.56,42.42,42.42,0,0,1-11.41,1.26,27.84,27.84,0,0,1-7.7-1.36,48.07,48.07,0,0,1-7.71-2.93,36.07,36.07,0,0,1-7.31-7,29.72,29.72,0,0,1-4.1-7.41,33.74,33.74,0,0,1-2-8.1Q909.55,183.77,909.36,179.09Zm17-10.54a13.83,13.83,0,0,0,2.44.3c1.1.06,2,.09,2.63.09q6.63,0,10.24-3.31a10.5,10.5,0,0,0,3.61-8,9,9,0,0,0-1.56-5.07,4.89,4.89,0,0,0-4.29-2.34,18.45,18.45,0,0,0-3.81.39,4.21,4.21,0,0,0-2.83,1.95,23.66,23.66,0,0,1-1.75,1.95,10.35,10.35,0,0,0-1.85,2.73,26.64,26.64,0,0,0-1.66,4.39A37,37,0,0,0,926.33,168.55Z"></path> <path class="cls-1" d="M1025.61,160.17a1.13,1.13,0,0,1,.2-.78q.59-4.29,2-5.86a5.16,5.16,0,0,0,1-1.36,3.27,3.27,0,0,1,.2-1,3.15,3.15,0,0,0,.19-1,28.77,28.77,0,0,1,10.24-12.78q6.73-4.58,19-4.78,9.36,0,14.44,5.17a17.55,17.55,0,0,1,5.07,12.78,29.68,29.68,0,0,1-1.85,9.46,27.6,27.6,0,0,1-5,7.31q6.63,2.75,9.75,6.73t3.13,11q0,8.2-3.42,13.76A29.86,29.86,0,0,1,1072,208a34.83,34.83,0,0,1-11,5.07,43.09,43.09,0,0,1-10.83,1.56,44.82,44.82,0,0,1-12-1.27,29.94,29.94,0,0,1-7.51-3.22q-4.1-4.48-6-12.58a75.65,75.65,0,0,1-1.85-16.87,62.76,62.76,0,0,1,.88-11.12c.58-3.25,1.14-6,1.66-8.19a.81.81,0,0,1,.1-.39,1.49,1.49,0,0,0,.09-.59Zm12.1,26.91a51,51,0,0,0,1.75,6.93,20.57,20.57,0,0,0,2.73,5.75,5.17,5.17,0,0,0,2.73.88,29.6,29.6,0,0,0,4.1.29,23.71,23.71,0,0,0,6.53-1,28.22,28.22,0,0,0,6.44-2.73,19.85,19.85,0,0,0,5.07-4.1,8.68,8.68,0,0,0,2.25-5.26,8.42,8.42,0,0,0-1.37-4.39,7.71,7.71,0,0,0-4.68-3.22,12.82,12.82,0,0,1-3.12-.39,4.35,4.35,0,0,0-1.37-.2,11.14,11.14,0,0,1-2,.59,11.09,11.09,0,0,0-2,.58l-12.48,4.29Zm1.36-14.82c.52-.26,1.14-.55,1.85-.88s1.34-.61,1.86-.88l2-.78a100.29,100.29,0,0,0,10-3.9,20,20,0,0,0,5.56-3.61,9.2,9.2,0,0,0,2.43-3.8,16.4,16.4,0,0,0,.59-4.68v-1.17q0-2-2.24-4.19a7.55,7.55,0,0,0-5.56-2.25q-7,0-11.12,6.63a40.27,40.27,0,0,0-5.27,16.58Z"></path> <path class="cls-1" d="M1101.3,184.74a21.1,21.1,0,0,0,.68-4.68,26.9,26.9,0,0,1,.49-4.48c.51-4.16.94-8.32,1.26-12.49s.49-8.38.49-12.68a16.14,16.14,0,0,0-.19-2.63,12.44,12.44,0,0,1-.2-2.24,32.51,32.51,0,0,1,.29-4.78,6.83,6.83,0,0,1,1.17-3,4.75,4.75,0,0,1,2.64-1.65,18.78,18.78,0,0,1,4.87-.49,12.4,12.4,0,0,1,3.91,1.85,5.76,5.76,0,0,1,1.85,2.34,9.54,9.54,0,0,1,.58,2.83c.07,1,.17,2.15.3,3.32q0,13.65-.69,20t-.68,8.88q0,.39.78.39a18.16,18.16,0,0,0,5.17-1.27c2.41-.85,4.32-1.59,5.75-2.25a20.44,20.44,0,0,0,2.44-.87c1.5-.59,3.12-1.27,4.88-2.05s3.44-1.59,5.07-2.44a9.33,9.33,0,0,0,2.83-1.85c0-.39.06-1.2.19-2.44s.2-2.05.2-2.44l1.76-15.41c0-.13.09-.78.29-1.95a13.42,13.42,0,0,1,1.17-3.61,10.69,10.69,0,0,1,2.63-3.41,7.1,7.1,0,0,1,4.88-1.56,4,4,0,0,1,1.46.58c.71.39,1.46.82,2.24,1.27l2.15,1.27c.65.39,1.1.65,1.37.78v5.27a22.47,22.47,0,0,1-.2,2.73q-.39,4.1-.59,7.9t-.58,7.7a67.54,67.54,0,0,0-.59,6.93c-.13,2.92-.19,5-.19,6.34v6.53c0,1,0,2.37.1,4.19s.13,4.1.19,6.83.16,6.12.29,10.14c0,.4,0,1.18.1,2.35s.16,2.43.29,3.8.23,2.63.3,3.8.09,1.95.09,2.34l-.39,2a6.21,6.21,0,0,1-.39,1.76,6.54,6.54,0,0,1-1.46,2.34,9.38,9.38,0,0,1-2.92,2.05,11.3,11.3,0,0,1-4.78.88,5.66,5.66,0,0,1-5.66-3.81,19.21,19.21,0,0,1-1.56-7.31c0-.91,0-1.82-.1-2.73s-.1-1.89-.1-2.93c0-2.08,0-4-.09-5.75s-.1-3.68-.1-5.76V180.26a4.23,4.23,0,0,0-.1-.88c-.06-.32-.42-.49-1.07-.49a7.67,7.67,0,0,0-2.15.59c-1,.39-2.14.85-3.31,1.36s-2.28,1-3.32,1.37a8.23,8.23,0,0,1-2,.58,15.18,15.18,0,0,0-4,1.47,43.67,43.67,0,0,1-6.92,2.44c.13,0,0,.09-.49.29l-1.66.68c-.65.26-1.27.52-1.85.78s-.88.46-.88.59a17.81,17.81,0,0,0-.78,3.31q-.39,2.34-.78,5.27c-.26,1.95-.46,4-.58,6.14s-.2,4.07-.2,5.76v6.24a4.89,4.89,0,0,1-.1,1.17c-.06.26-.16.71-.29,1.36l-.59,2.35a7.92,7.92,0,0,1-1.75,3.6,4.29,4.29,0,0,1-3.32,2,11.91,11.91,0,0,1-6.73-1.75,13.39,13.39,0,0,1-4.39-5.27,10.78,10.78,0,0,1,.69-3.8,10.11,10.11,0,0,0,.68-3.42,6.8,6.8,0,0,0-.39-2.14Z"></path> <path class="cls-1" d="M1183,156.85q0-5.26.39-10.14a39.83,39.83,0,0,1,2-9.56,2.54,2.54,0,0,1,1.07-.88,13.27,13.27,0,0,1,2-.88l1.26-.39c.46-.12,1-.25,1.66-.39a15.66,15.66,0,0,1,6.24,2.34,6.29,6.29,0,0,1,3.12,5.66,23.92,23.92,0,0,1-.58,5.56,24.87,24.87,0,0,0-.59,5.75,61.3,61.3,0,0,1-.48,8.78,37.41,37.41,0,0,0-.49,5.85q0,9.38.58,17.27t1,12q3.12-.39,6.92-5.36a85.4,85.4,0,0,0,7.51-12,155.29,155.29,0,0,0,6.83-14.82q3.12-7.8,5.07-13.85a15.29,15.29,0,0,0,.69-5.07,14.53,14.53,0,0,1,.48-4.59,6.09,6.09,0,0,1,2.64-3.41q2-1.36,6.92-1.37a.94.94,0,0,1,.39.1.81.81,0,0,0,.39.1,6.71,6.71,0,0,1,3.71,1.56,11.77,11.77,0,0,1,3.12,3.12q0,11.52-.68,18a109.26,109.26,0,0,0-.69,11.22,87.73,87.73,0,0,0,1.27,16.09,27.06,27.06,0,0,0,4.2,10.83c.78.91,1.49,1.79,2.14,2.63a15.2,15.2,0,0,1,1.76,3,7,7,0,0,1-1.27,3,5.28,5.28,0,0,1-2,1.56,10.2,10.2,0,0,1-2.54.68,20.49,20.49,0,0,0-2.73.59,14.27,14.27,0,0,1-6.92-3.51,19.83,19.83,0,0,1-4.29-6.15,32.54,32.54,0,0,1-2.44-8c-.52-2.92-1-5.95-1.37-9.07l-.78,1.56q-1.56,3.33-4.19,8.78a83.51,83.51,0,0,1-6.14,10.63,43.37,43.37,0,0,1-8.1,9,15.19,15.19,0,0,1-9.85,3.8,16.33,16.33,0,0,1-9.07-2.24,14.25,14.25,0,0,1-5.27-7.32,51.6,51.6,0,0,1-2.53-13.07q-.69-8-.69-19.7a38.56,38.56,0,0,0,.39-5.46V156.85Z"></path> <path class="cls-1" d="M1296,197.81a16.12,16.12,0,0,1,7.81,3.32,22.75,22.75,0,0,1,5.26,5.46,32.47,32.47,0,0,1,4.68,10.14,39.13,39.13,0,0,1,1.37,9.76,82.83,82.83,0,0,1-.78,10.34,24.93,24.93,0,0,1-3.51,10.33,46.06,46.06,0,0,1-3.61,4.69q-2.06,2.34-3.61,4.48a51.92,51.92,0,0,1-4.19,5.07,58.74,58.74,0,0,1-4.49,4.2q-2.45,2-5.56,4.58t-7.41,6.24a67.72,67.72,0,0,1-6.54,5.27,9.78,9.78,0,0,1-5.56,1.95,10.83,10.83,0,0,1-3.21-.58,14.46,14.46,0,0,1-3.51-1.66,14.88,14.88,0,0,1-2.83-2.34,3.89,3.89,0,0,1-1.17-2.64q0-5.85,6.63-10.14,5.07-3.12,9-5.17a24.25,24.25,0,0,0,4.88-3q2.93-3.12,4.39-4.59c1-1,1.75-1.79,2.34-2.43s1.1-1.27,1.56-1.86,1.13-1.46,2.05-2.63a60.39,60.39,0,0,0,6.43-10.05,18.64,18.64,0,0,0,1.76-7.9,21.2,21.2,0,0,0-.59-5.46,11,11,0,0,0-1.65-3.61,15.38,15.38,0,0,0-2.64-2.73c-1-.85-2.21-1.85-3.51-3q-1.56-1.37-7.61-2.93a79.17,79.17,0,0,0-13.65-2.14,7.11,7.11,0,0,0-1.37-2.05,30.78,30.78,0,0,1-2.34-3q-.2-.19-1.56-1.86a5.09,5.09,0,0,1-1.36-3.22,9.19,9.19,0,0,1,2.53-4.48c-.13.13.49-.2,1.86-1s3.15-1.92,5.36-3.41,4.65-3.22,7.32-5.17a63.78,63.78,0,0,0,7.41-6.34,41.09,41.09,0,0,0,5.65-6.92,12.69,12.69,0,0,0,2.25-6.83,17.54,17.54,0,0,0-1.37-7.41c-.91-2-3.25-2.93-7-2.93a36.15,36.15,0,0,0-6.53.49c-1.76.32-3.29.65-4.59,1s-2.41.66-3.31,1a7.78,7.78,0,0,1-2.54.49h-.78a5.47,5.47,0,0,1-3.71-2,21.24,21.24,0,0,1-2.73-3.31,14.34,14.34,0,0,1,6.44-6.73,38.76,38.76,0,0,1,9.17-3.61,44.85,44.85,0,0,1,8.58-1.36c2.6-.13,4.22-.2,4.88-.2a17.13,17.13,0,0,1,7.51,1.85,26.44,26.44,0,0,1,6.82,4.78,23.88,23.88,0,0,1,4.88,6.73,17.13,17.13,0,0,1,1.85,7.51,35.41,35.41,0,0,1-1.56,9.85,29.09,29.09,0,0,1-6.63,11,49.27,49.27,0,0,1-5.66,5.56q-2.92,2.44-5.46,4.39t-4.39,3.12a17.73,17.73,0,0,0-2.24,1.56Z"></path> <path class="cls-1" d="M1336,203.08A113,113,0,0,0,1340,182.4q.2-4.29,3.71-5.26a8.19,8.19,0,0,1,3.71-.78,16.46,16.46,0,0,1,9,2.73c1.17.78,1.75,2.41,1.75,4.87a21.27,21.27,0,0,1-.78,5.47q-2.73,12.28-4.29,18.92t-1.95,7.6a113.81,113.81,0,0,1-9.36,25.17q-1.17,2.15-4.68,2.14a20.52,20.52,0,0,1-3.81-.39,11.45,11.45,0,0,1-3.7-1.36,11,11,0,0,1-2.83-2.34,5.24,5.24,0,0,1-1.17-3.51,21,21,0,0,1,1.56-6.44c.78-1.69,1.62-3.71,2.54-6.05Z"></path> <path class="cls-1" d="M1426.65,156.85q0-5.26.39-10.14a40.3,40.3,0,0,1,2-9.56,2.68,2.68,0,0,1,1.07-.88,13.71,13.71,0,0,1,2-.88c.39-.12.81-.26,1.27-.39s1-.25,1.66-.39a15.66,15.66,0,0,1,6.24,2.34,6.29,6.29,0,0,1,3.12,5.66,23.89,23.89,0,0,1-.59,5.56,24.91,24.91,0,0,0-.58,5.75,61,61,0,0,1-.49,8.78,38.66,38.66,0,0,0-.49,5.85q0,9.38.59,17.27t1,12q3.12-.39,6.93-5.36a86.33,86.33,0,0,0,7.51-12,157.8,157.8,0,0,0,6.83-14.82q3.11-7.8,5.07-13.85a15.28,15.28,0,0,0,.68-5.07,14.52,14.52,0,0,1,.49-4.59,6.11,6.11,0,0,1,2.63-3.41c1.37-.91,3.67-1.37,6.93-1.37a1,1,0,0,1,.39.1.76.76,0,0,0,.39.1,6.68,6.68,0,0,1,3.7,1.56,11.77,11.77,0,0,1,3.12,3.12q0,11.52-.68,18a108.93,108.93,0,0,0-.68,11.22,87.73,87.73,0,0,0,1.27,16.09,27.06,27.06,0,0,0,4.19,10.83c.78.91,1.49,1.79,2.15,2.63a15.19,15.19,0,0,1,1.75,3,6.75,6.75,0,0,1-1.27,3,5.21,5.21,0,0,1-2,1.56,10.12,10.12,0,0,1-2.53.68,20.49,20.49,0,0,0-2.73.59,14.35,14.35,0,0,1-6.93-3.51,20.17,20.17,0,0,1-4.29-6.15,33,33,0,0,1-2.44-8c-.52-2.92-1-5.95-1.36-9.07l-.78,1.56q-1.56,3.33-4.2,8.78a82.33,82.33,0,0,1-6.14,10.63,43.05,43.05,0,0,1-8.09,9,15.19,15.19,0,0,1-9.86,3.8,16.35,16.35,0,0,1-9.07-2.24,14.24,14.24,0,0,1-5.26-7.32,51.55,51.55,0,0,1-2.54-13.07q-.69-8-.68-19.7a38.56,38.56,0,0,0,.39-5.46V156.85Z"></path> <path class="cls-1" d="M1569,172.85q0,2.73.1,6.63a65,65,0,0,0,.68,7.9,41.64,41.64,0,0,0,1.66,7.21,8.71,8.71,0,0,0,3,4.59,13.44,13.44,0,0,0,6.64-5.37,45.72,45.72,0,0,0,4.68-8.87,91.89,91.89,0,0,0,3.31-9.85q1.36-5,2.34-8.29a82.92,82.92,0,0,0,.78-9.07,87.61,87.61,0,0,1,.88-9.75,25.6,25.6,0,0,1,2.25-7.71,5.12,5.12,0,0,1,4.87-3.12,11.84,11.84,0,0,1,6.24,1.76A7.11,7.11,0,0,1,1610,144q-.78,11.11-1.07,19.21t-.29,13.36c0,1.17,0,2.73.1,4.68s.16,4.07.29,6.34.22,4.62.29,7,.1,4.66.1,6.73q0,20.69-5,37.07a83,83,0,0,1-16.68,30c-1.17.9-2.41,1.88-3.71,2.92a28.77,28.77,0,0,1-10.43,5.27,28.9,28.9,0,0,1-7.9,1,10.44,10.44,0,0,1-2.83-.48,11.42,11.42,0,0,1-3.12-1.47,8.69,8.69,0,0,1-2.44-2.43,5.7,5.7,0,0,1-1-3.22c0-.78.85-1.6,2.54-2.44s3.7-1.79,6-2.83,4.71-2.21,7.12-3.51a20.69,20.69,0,0,0,5.94-4.68,74,74,0,0,0,12.29-23.9,94.44,94.44,0,0,0,3.51-26.23v-2.83a18.81,18.81,0,0,1,.2-2.64,1.64,1.64,0,0,0-1-.19,20.94,20.94,0,0,1-3.31,5.27,36.49,36.49,0,0,1-4.78,4.68,25.87,25.87,0,0,1-5.36,3.41,12.13,12.13,0,0,1-5.08,1.27q-7.21,0-11.5-4.68a31.12,31.12,0,0,1-6.54-11.32,60.8,60.8,0,0,1-2.93-13.85q-.67-7.22-.68-12.28c0-.78,0-1.57.1-2.35s.1-1.56.1-2.34q0-3.31-.2-6.34t-.19-6.33c0-1.57.06-3.35.19-5.37a27.31,27.31,0,0,1,1-5.75,15.71,15.71,0,0,1,2.05-4.59,3.94,3.94,0,0,1,3.41-1.85c3,0,5.13.59,6.44,1.76a8.17,8.17,0,0,1,2.53,4.38,26.62,26.62,0,0,1,.59,5.76,25.26,25.26,0,0,0,.58,5.66c-.13,1.82-.23,4.12-.29,6.92s-.1,5-.1,6.73Z"></path> <path class="cls-1" d="M1661.11,197.81a16,16,0,0,1,7.8,3.32,22.81,22.81,0,0,1,5.27,5.46,32.47,32.47,0,0,1,4.68,10.14,39.08,39.08,0,0,1,1.36,9.76,82.83,82.83,0,0,1-.78,10.34,24.93,24.93,0,0,1-3.51,10.33,44.67,44.67,0,0,1-3.61,4.69c-1.36,1.56-2.57,3.05-3.6,4.48a51.92,51.92,0,0,1-4.2,5.07,56.75,56.75,0,0,1-4.48,4.2c-1.63,1.36-3.49,2.89-5.56,4.58s-4.56,3.77-7.42,6.24a69,69,0,0,1-6.53,5.27,9.8,9.8,0,0,1-5.56,1.95,10.94,10.94,0,0,1-3.22-.58,14.46,14.46,0,0,1-3.51-1.66,14.88,14.88,0,0,1-2.83-2.34,3.89,3.89,0,0,1-1.17-2.64q0-5.85,6.63-10.14,5.07-3.12,9-5.17a24.07,24.07,0,0,0,4.87-3c2-2.08,3.42-3.61,4.39-4.59s1.76-1.79,2.34-2.43,1.11-1.27,1.56-1.86,1.14-1.46,2-2.63a60.58,60.58,0,0,0,6.44-10.05,18.63,18.63,0,0,0,1.75-7.9,21.25,21.25,0,0,0-.58-5.46,11.05,11.05,0,0,0-1.66-3.61,15.32,15.32,0,0,0-2.63-2.73c-1.05-.85-2.22-1.85-3.51-3-1-.91-3.58-1.89-7.61-2.93a79.14,79.14,0,0,0-13.66-2.14,7.05,7.05,0,0,0-1.36-2.05,30.78,30.78,0,0,1-2.34-3q-.2-.19-1.56-1.86a5.11,5.11,0,0,1-1.37-3.22,9.21,9.21,0,0,1,2.54-4.48c-.13.13.49-.2,1.85-1s3.15-1.92,5.37-3.41,4.64-3.22,7.31-5.17a63,63,0,0,0,7.41-6.34,41.17,41.17,0,0,0,5.66-6.92,12.76,12.76,0,0,0,2.24-6.83,17.55,17.55,0,0,0-1.36-7.41c-.91-2-3.26-2.93-7-2.93a36.23,36.23,0,0,0-6.53.49c-1.76.32-3.29.65-4.58,1s-2.41.66-3.32,1a7.73,7.73,0,0,1-2.54.49h-.78a5.45,5.45,0,0,1-3.7-2,21.24,21.24,0,0,1-2.73-3.31,14.32,14.32,0,0,1,6.43-6.73,38.76,38.76,0,0,1,9.17-3.61,44.85,44.85,0,0,1,8.58-1.36c2.6-.13,4.23-.2,4.88-.2a17.1,17.1,0,0,1,7.51,1.85,26.49,26.49,0,0,1,6.83,4.78,23.85,23.85,0,0,1,4.87,6.73,17,17,0,0,1,1.86,7.51,35.41,35.41,0,0,1-1.56,9.85,29.09,29.09,0,0,1-6.63,11,50.09,50.09,0,0,1-5.66,5.56q-2.93,2.44-5.46,4.39c-1.69,1.3-3.16,2.34-4.39,3.12a17.36,17.36,0,0,0-2.25,1.56Z"></path> <path class="cls-1" d="M1695.83,184.74a21.1,21.1,0,0,0,.68-4.68,26.9,26.9,0,0,1,.49-4.48c.51-4.16.94-8.32,1.26-12.49s.49-8.38.49-12.68a15.09,15.09,0,0,0-.19-2.63,12.44,12.44,0,0,1-.2-2.24,32.51,32.51,0,0,1,.29-4.78,6.83,6.83,0,0,1,1.17-3,4.75,4.75,0,0,1,2.64-1.65,18.78,18.78,0,0,1,4.87-.49,12.4,12.4,0,0,1,3.91,1.85,5.76,5.76,0,0,1,1.85,2.34,9.54,9.54,0,0,1,.58,2.83c.07,1,.17,2.15.3,3.32q0,13.65-.69,20t-.68,8.88q0,.39.78.39a18.16,18.16,0,0,0,5.17-1.27c2.41-.85,4.32-1.59,5.76-2.25a21.47,21.47,0,0,0,2.43-.87c1.5-.59,3.12-1.27,4.88-2.05s3.44-1.59,5.07-2.44a9.33,9.33,0,0,0,2.83-1.85c0-.39.06-1.2.19-2.44s.2-2.05.2-2.44l1.76-15.41c0-.13.09-.78.29-1.95a13.42,13.42,0,0,1,1.17-3.61,10.69,10.69,0,0,1,2.63-3.41,7.1,7.1,0,0,1,4.88-1.56,3.93,3.93,0,0,1,1.46.58c.71.39,1.46.82,2.24,1.27l2.15,1.27c.65.39,1.1.65,1.37.78v5.27a22.47,22.47,0,0,1-.2,2.73c-.26,2.73-.46,5.36-.58,7.9s-.33,5.1-.59,7.7a67.54,67.54,0,0,0-.59,6.93c-.13,2.92-.19,5-.19,6.34v6.53c0,1,0,2.37.1,4.19s.13,4.1.19,6.83.16,6.12.29,10.14c0,.4,0,1.18.1,2.35s.16,2.43.3,3.8.22,2.63.29,3.8.1,1.95.1,2.34l-.39,2a6.32,6.32,0,0,1-.4,1.76,6.54,6.54,0,0,1-1.46,2.34,9.38,9.38,0,0,1-2.92,2.05,11.3,11.3,0,0,1-4.78.88,5.66,5.66,0,0,1-5.66-3.81,19.21,19.21,0,0,1-1.56-7.31c0-.91,0-1.82-.1-2.73s-.1-1.89-.1-2.93c0-2.08,0-4-.09-5.75s-.1-3.68-.1-5.76V180.26a4.23,4.23,0,0,0-.1-.88c-.06-.32-.42-.49-1.07-.49a7.67,7.67,0,0,0-2.15.59c-1,.39-2.14.85-3.31,1.36s-2.28,1-3.32,1.37a8.23,8.23,0,0,1-2,.58,15.18,15.18,0,0,0-4,1.47,43.67,43.67,0,0,1-6.92,2.44c.13,0,0,.09-.49.29l-1.66.68c-.65.26-1.27.52-1.85.78s-.88.46-.88.59a17.81,17.81,0,0,0-.78,3.31q-.39,2.34-.78,5.27c-.26,1.95-.46,4-.58,6.14s-.2,4.07-.2,5.76v6.24a4.89,4.89,0,0,1-.1,1.17c-.06.26-.16.71-.29,1.36l-.59,2.35a7.92,7.92,0,0,1-1.75,3.6,4.29,4.29,0,0,1-3.32,2,11.91,11.91,0,0,1-6.73-1.75,13.39,13.39,0,0,1-4.39-5.27,10.78,10.78,0,0,1,.69-3.8,10.11,10.11,0,0,0,.68-3.42,6.8,6.8,0,0,0-.39-2.14Z"></path> <path class="cls-1" d="M1843.49,208q.59,1.56,1.17,3.21a9.67,9.67,0,0,1,.58,3.22,3.64,3.64,0,0,1-.88,2.54,6.5,6.5,0,0,1-2.14,1.56,13,13,0,0,1-2.64.88,12.43,12.43,0,0,1-2.53.29q-3.9,0-6.44-4.39a40.36,40.36,0,0,1-4.09-10.92q-1.57-6.54-2.64-13.85t-2.05-13.17a34.52,34.52,0,0,1-3.8,10.34,64.24,64.24,0,0,1-8.1,12,56.75,56.75,0,0,1-10.72,9.85,20.33,20.33,0,0,1-11.71,4.09,14.47,14.47,0,0,1-7.7-1.85,12.82,12.82,0,0,1-4.59-4.58,18.61,18.61,0,0,1-2.14-6.15,37.68,37.68,0,0,1-.59-6.34q0-6.44,3.22-15.9a90.13,90.13,0,0,1,8.78-18.43,66.55,66.55,0,0,1,12.87-15.31q7.32-6.33,15.51-6.34a16.55,16.55,0,0,1,4,.58c1.49.4,3,.88,4.58,1.47a28.43,28.43,0,0,1,4.49,2.14,43.59,43.59,0,0,1,3.71,2.44,13.56,13.56,0,0,1,4.48,7.41,76.64,76.64,0,0,1,1.76,9.76q1.36,9.75,2.14,17.65a120.14,120.14,0,0,0,2.93,16.68l1.17,7.22Zm-55-10.15a.4.4,0,0,0,.1.3.4.4,0,0,1,.09.29q2.53-.19,5.85-3.41a63.8,63.8,0,0,0,6.64-7.71,93,93,0,0,0,6.14-9.46,55.85,55.85,0,0,0,4.2-8.88c.51-1.17,1.13-2.46,1.85-3.9s1.43-2.89,2.14-4.39a41.39,41.39,0,0,0,1.76-4.19,10.46,10.46,0,0,0,.68-3.32,16.24,16.24,0,0,1-1.75-.78,4,4,0,0,0-1.76-.39,10.48,10.48,0,0,0-7.61,3.32,37.51,37.51,0,0,0-5.75,7.41,59.94,59.94,0,0,0-4,7.9,47,47,0,0,1-2.14,4.78,58.66,58.66,0,0,0-4.59,10.54,34.86,34.86,0,0,0-1.85,10.92Z"></path> <path class="cls-1" d="M1858.11,156.85q0-5.26.39-10.14a40.3,40.3,0,0,1,2-9.56,2.66,2.66,0,0,1,1.08-.88,13.27,13.27,0,0,1,2-.88l1.26-.39c.46-.12,1-.25,1.66-.39a15.66,15.66,0,0,1,6.24,2.34,6.29,6.29,0,0,1,3.12,5.66,23.92,23.92,0,0,1-.58,5.56,24.87,24.87,0,0,0-.59,5.75,61.3,61.3,0,0,1-.48,8.78,37.41,37.41,0,0,0-.49,5.85q0,9.38.58,17.27t1,12q3.12-.39,6.92-5.36a85.4,85.4,0,0,0,7.51-12,155.29,155.29,0,0,0,6.83-14.82q3.12-7.8,5.07-13.85a15,15,0,0,0,.68-5.07,14.82,14.82,0,0,1,.49-4.59,6.09,6.09,0,0,1,2.64-3.41q2-1.36,6.92-1.37a.94.94,0,0,1,.39.1.81.81,0,0,0,.39.1,6.74,6.74,0,0,1,3.71,1.56,11.77,11.77,0,0,1,3.12,3.12q0,11.52-.68,18a109.26,109.26,0,0,0-.69,11.22,87.73,87.73,0,0,0,1.27,16.09A27.06,27.06,0,0,0,1924,198.4c.78.91,1.5,1.79,2.15,2.63a15.2,15.2,0,0,1,1.76,3,7,7,0,0,1-1.27,3,5.28,5.28,0,0,1-2,1.56,10.2,10.2,0,0,1-2.54.68,20.49,20.49,0,0,0-2.73.59,14.27,14.27,0,0,1-6.92-3.51,19.83,19.83,0,0,1-4.29-6.15,32.54,32.54,0,0,1-2.44-8c-.52-2.92-1-5.95-1.37-9.07l-.78,1.56q-1.56,3.33-4.19,8.78a82.41,82.41,0,0,1-6.15,10.63,43.05,43.05,0,0,1-8.09,9,15.19,15.19,0,0,1-9.85,3.8,16.33,16.33,0,0,1-9.07-2.24,14.25,14.25,0,0,1-5.27-7.32,51.16,51.16,0,0,1-2.53-13.07q-.69-8-.69-19.7a38.56,38.56,0,0,0,.39-5.46V156.85Zm4.49-57.15a5.14,5.14,0,0,1,3.71-4.78,26.41,26.41,0,0,1,6.43-1.27,6.76,6.76,0,0,1,3.32,3.51c.78,1.69,1.62,3.42,2.54,5.17a16.47,16.47,0,0,0,3.6,4.68q2.25,2.05,6.54,2a24.63,24.63,0,0,0,12.58-5.85q5.75-4.87,12.39-15.41a7.74,7.74,0,0,1,2.82-2.63,6.32,6.32,0,0,1,2.25-.88,9.43,9.43,0,0,1,5.07,1.46,4.91,4.91,0,0,1,2.54,3.8,7.94,7.94,0,0,1-1.18,3.71,14.06,14.06,0,0,1-2.14,3.12,88.21,88.21,0,0,1-9.27,13.27,51.13,51.13,0,0,1-9.36,8.58,35.87,35.87,0,0,1-9.75,4.87,53.41,53.41,0,0,1-10.24,2.15q-10-1.95-15.32-8.78A32.77,32.77,0,0,1,1862.6,99.7Z"></path> <path class="cls-1" d="M2040.49,160a76.14,76.14,0,0,0,1.37,14.73q1.37,6.93,2.34,14.73a25.67,25.67,0,0,0,2.24,8,19.67,19.67,0,0,1,1.86,8.2q0,4.49-2.64,6.82a9.21,9.21,0,0,1-6.34,2.34A7,7,0,0,1,2033,211a29.35,29.35,0,0,1-3.31-8.78,72.54,72.54,0,0,1-1.46-9.75,37.86,37.86,0,0,0-1-6.73,27.34,27.34,0,0,1-1.56-6.34q-.39-3.23-.68-6.34c-.2-2.08-.39-4.16-.59-6.24a33.76,33.76,0,0,0-1.27-6.44c-1.17,2.21-2.43,4.59-3.8,7.12s-2.73,5.14-4.1,7.8-2.7,5.27-4,7.81-2.4,4.84-3.31,6.92a44.19,44.19,0,0,0-2.44,6.34c-.58,2-1.14,4-1.66,6s-1.1,3.9-1.75,5.85a42.56,42.56,0,0,1-2.73,6.24,11.22,11.22,0,0,1-5.08,1.17,6.78,6.78,0,0,1-5.75-2.73,19.28,19.28,0,0,1-3.12-6.82,57.57,57.57,0,0,1-1.56-8.59c-.33-3-.68-5.65-1.07-8s-.62-5.14-1.08-8-1-5.69-1.75-8.49-1.5-5.43-2.34-7.9a26.49,26.49,0,0,0-2.83-6,18.33,18.33,0,0,0-4.78,6,83.92,83.92,0,0,0-3.71,8.1q-1.65,4.2-2.83,8.19a63.46,63.46,0,0,1-2.14,6.34,29.7,29.7,0,0,0-3.41,9.07c-.59,3.06-1.24,5.85-2,8.39a15.22,15.22,0,0,1-3.32,6.24q-2.25,2.44-7.51,2.44a5.06,5.06,0,0,1-3-1.07,9.46,9.46,0,0,1-2.44-2.64,15.41,15.41,0,0,1-1.56-3.31,10.54,10.54,0,0,1-.59-3.32,27.35,27.35,0,0,0,.49-3.9c.06-1.3.1-2.66.1-4.1,0-.39.06-1.36.19-2.92s.26-3.22.39-5,.26-3.41.39-5,.2-2.54.2-2.93q0-10.92-.2-15.7t-.39-6.53q-.2-1.75-.39-1.86c-.13-.06-.19-.61-.19-1.66a12.2,12.2,0,0,0-.69-4.09,12.42,12.42,0,0,1-.68-4.1,5.91,5.91,0,0,1,2.34-4.68,7.77,7.77,0,0,1,5.07-2,7.92,7.92,0,0,1,5.47,1.76,10.1,10.1,0,0,1,2.82,4.38,22.28,22.28,0,0,1,1.08,5.66c.12,2,.19,3.81.19,5.37a47.51,47.51,0,0,1-.29,4.87,46.47,46.47,0,0,0-.29,5.07,15.88,15.88,0,0,0,.39,3.12c.78-1.68,1.65-3.57,2.63-5.65s2-4.2,3.12-6.34,2.24-4.2,3.41-6.15a42.76,42.76,0,0,1,3.52-5.07q2.34-2.93,5.46-6.14a9.55,9.55,0,0,1,7-3.22,10.08,10.08,0,0,1,6.63,2,12.08,12.08,0,0,1,3.51,4.88,27.73,27.73,0,0,1,1.66,6.53,60.65,60.65,0,0,0,1.27,6.73q1.76,5.66,3.22,12.68t2.83,12.68c.25-.91.68-2.11,1.26-3.61s1.2-3,1.86-4.68,1.29-3.12,1.95-4.49,1.17-2.44,1.56-3.22c1.17-2.46,2.5-5.17,4-8.09a48.43,48.43,0,0,1,5.26-8.19,31.87,31.87,0,0,1,7-6.54,18.51,18.51,0,0,1,9.26-3.12,36.28,36.28,0,0,0,4.29,1.85,8.16,8.16,0,0,1,3.32,2.15,10.22,10.22,0,0,1,2.14,4.39,34.49,34.49,0,0,1,.78,8.39Zm-73.73-36.09a3.32,3.32,0,0,1-1.85,1.37c-1,.39-2,.75-3.12,1.07a20.62,20.62,0,0,1-3.12.69,18,18,0,0,1-2.05.19c-1.17,0-2.22-.75-3.12-2.24a8.45,8.45,0,0,1-1.37-4.39,2,2,0,0,1,.2-1.17q3.9-8.39,16.09-13t34-4.59a63.43,63.43,0,0,1,16.28,2.25,64.29,64.29,0,0,1,14,5.17l2.34,1.36a8,8,0,0,1,2.64,2.93,10.94,10.94,0,0,1,1.65,5.07,3.61,3.61,0,0,1-1.26,2.44,8.13,8.13,0,0,1-3.81,1.27q-2.54-1-6.83-2.25c-2.86-.84-5.94-1.62-9.26-2.34s-6.63-1.33-10-1.85a57.83,57.83,0,0,0-8.87-.78,62.43,62.43,0,0,0-15.61,2.24,75.52,75.52,0,0,0-15.41,5.75Z"></path> <path class="cls-1" d="M2060.58,179.09a58.74,58.74,0,0,1,1.86-14.53,44.71,44.71,0,0,1,5.56-13.17,31,31,0,0,1,9.16-9.46,22.44,22.44,0,0,1,12.68-3.61,23.32,23.32,0,0,1,8.88,1.56,19.13,19.13,0,0,1,6.34,4.1,16.77,16.77,0,0,1,3.8,5.75,18.12,18.12,0,0,1,1.27,6.73A23.37,23.37,0,0,1,2096,178a27.59,27.59,0,0,1-10.44,2.25,16.07,16.07,0,0,1-4.48-.2,45.87,45.87,0,0,1-4.49-1.17,8.8,8.8,0,0,0-.2,1.66v1.07q.2,7.23,2.34,11.32a19.07,19.07,0,0,0,4.69,6.14,12.76,12.76,0,0,0,4.87,2.63,16.55,16.55,0,0,0,3.12.59,17.45,17.45,0,0,0,10-2.73l8.87-6,2.15.88a5.25,5.25,0,0,1,2.15,1.85,15.73,15.73,0,0,0,.39,1.86,8.49,8.49,0,0,1,.19,2,9.18,9.18,0,0,1-1.46,4.59,17,17,0,0,1-2.83,3.22,26.71,26.71,0,0,1-9.46,5.56,42.47,42.47,0,0,1-11.41,1.26,28,28,0,0,1-7.71-1.36,48.29,48.29,0,0,1-7.7-2.93,36.41,36.41,0,0,1-7.32-7,29.68,29.68,0,0,1-4.09-7.41,33.74,33.74,0,0,1-1.95-8.1Q2060.78,183.77,2060.58,179.09Zm17-10.54a14,14,0,0,0,2.44.3c1.11.06,2,.09,2.64.09q6.61,0,10.24-3.31a10.5,10.5,0,0,0,3.61-8,9,9,0,0,0-1.57-5.07,4.89,4.89,0,0,0-4.29-2.34,18.35,18.35,0,0,0-3.8.39,4.21,4.21,0,0,0-2.83,1.95,25.63,25.63,0,0,1-1.75,1.95,10.36,10.36,0,0,0-1.86,2.73,27.58,27.58,0,0,0-1.66,4.39A37,37,0,0,0,2077.55,168.55Z"></path> <path class="cls-1" d="M2208.85,201a5,5,0,0,1,3.8,1.56,5.46,5.46,0,0,1,1.46,3.9,4.46,4.46,0,0,1-1.07,3.12,6.7,6.7,0,0,1-2.83,1.76,21.83,21.83,0,0,1-4,.87c-1.49.2-3,.36-4.38.49q-3.33-1-6.34-1.76a19.29,19.29,0,0,1-6.15-2.92q-4.87-4.1-9.46-8.78a33.81,33.81,0,0,1-7.12-10.73,10.12,10.12,0,0,1-1.66-3.12c-.45-1.3-.84-2.63-1.17-4a31.37,31.37,0,0,1-.68-3.9,30.17,30.17,0,0,1-.2-3,41.27,41.27,0,0,1,.88-8.19,43.65,43.65,0,0,1,2.64-8.39,36.81,36.81,0,0,1,4.29-7.51,24.13,24.13,0,0,1,6-5.76l7.42-3.31q2.73-.78,5.46-1.76a17.26,17.26,0,0,1,5.85-1q4.48.39,6.24,1.65t2.93,5.76a10.5,10.5,0,0,1-1.17,2.73,4.81,4.81,0,0,1-2.93,2.34,13.16,13.16,0,0,1-4.19,1.17,11.26,11.26,0,0,0-4,1.17,26.81,26.81,0,0,0-5.27,3.12,38.66,38.66,0,0,0-3.12,2.73,9.15,9.15,0,0,0-1.95,2.73,10.8,10.8,0,0,0-2,4.88,34.93,34.93,0,0,0-.39,4.88,27.41,27.41,0,0,0,1.27,8.19,42.58,42.58,0,0,0,3.22,7.71,30.11,30.11,0,0,0,4.39,6.24,18.83,18.83,0,0,0,4.58,3.8,9.89,9.89,0,0,0,7,3.32Z"></path> <path class="cls-1" d="M2224.26,178.79a58.72,58.72,0,0,1,1.85-14.53,45,45,0,0,1,5.56-13.17,31.17,31.17,0,0,1,9.17-9.46,22.5,22.5,0,0,1,12.68-3.61,23.23,23.23,0,0,1,8.87,1.56,19,19,0,0,1,6.34,4.1,16.72,16.72,0,0,1,3.8,5.75,18.12,18.12,0,0,1,1.27,6.73,23.67,23.67,0,0,1-6.43,16.19,23.83,23.83,0,0,1-7.71,5.37,27.73,27.73,0,0,1-10.43,2.24,16.14,16.14,0,0,1-4.49-.2,41.39,41.39,0,0,1-4.49-1.17,8.77,8.77,0,0,0-.19,1.66v1.08q.2,7.21,2.34,11.31a19.19,19.19,0,0,0,4.68,6.14,12.9,12.9,0,0,0,4.88,2.64,16.24,16.24,0,0,0,3.12.58,17.39,17.39,0,0,0,10-2.73l8.88-6.05,2.14.88a5.22,5.22,0,0,1,2.15,1.86,17.79,17.79,0,0,0,.39,1.85,8.09,8.09,0,0,1,.19,2.05,9,9,0,0,1-1.46,4.58,17,17,0,0,1-2.83,3.22,26.71,26.71,0,0,1-9.46,5.56,42.37,42.37,0,0,1-11.41,1.27,27.9,27.9,0,0,1-7.7-1.37,48.07,48.07,0,0,1-7.71-2.93,36.07,36.07,0,0,1-7.31-7,29.72,29.72,0,0,1-4.1-7.41,34.25,34.25,0,0,1-1.95-8.09C2224.61,184.87,2224.39,181.91,2224.26,178.79Zm17-10.53a14,14,0,0,0,2.44.29c1.1.07,2,.1,2.63.1q6.63,0,10.24-3.32a10.5,10.5,0,0,0,3.61-8,9,9,0,0,0-1.56-5.07,4.89,4.89,0,0,0-4.29-2.34,18.52,18.52,0,0,0-3.81.39,4.24,4.24,0,0,0-2.83,1.95,23.66,23.66,0,0,1-1.75,2,10.35,10.35,0,0,0-1.85,2.73,27,27,0,0,0-1.66,4.39A37.08,37.08,0,0,0,2241.23,168.26Z"></path> <path class="cls-1" d="M2302.67,226.77a9.72,9.72,0,0,1-4.19-.87,14.4,14.4,0,0,1-3.12-2,12.68,12.68,0,0,1-2.05-2.15c-.52-.72-.91-1.27-1.17-1.66a4.74,4.74,0,0,0-.1-.68,10.71,10.71,0,0,1-.1-1.85c0-1.17.07-2.86.2-5.07s.52-5.27,1.17-9.17V161.23c0-1.95-.07-3.73-.2-5.36s-.32-3.35-.58-5.17c0-.78-.1-2.24-.29-4.39s-.3-4.32-.3-6.53v-2.15a9.93,9.93,0,0,1,.2-1.95c.39-.39,1-1.14,2-2.24a3.82,3.82,0,0,1,2.92-1.66,18.39,18.39,0,0,1,7.61,1.66q3.71,1.65,4.1,5,.78,3.71,1.17,6.93c.26,2.14.42,4.36.49,6.63s.12,4.75.19,7.41.16,5.63.29,8.88V170a4.58,4.58,0,0,0,1.76-1.07c.91-.71,2.27-1.85,4.1-3.41s4.12-3.64,6.92-6.25,6.21-5.78,10.24-9.55c-.26.13-.1-.17.49-.88a18.2,18.2,0,0,1,2.53-2.44,22.56,22.56,0,0,1,3.91-2.54,10.14,10.14,0,0,1,4.77-1.17,7.74,7.74,0,0,1,3.13.69,24.14,24.14,0,0,1,3.12,1.65l3.12,3.32v2.15a16.67,16.67,0,0,1-.39,3.41,6,6,0,0,1-2.34,3.41,95.4,95.4,0,0,1-11.32,9q-6,4.09-11.7,8.58a1.63,1.63,0,0,0-.68.68,10,10,0,0,1-.49,1.07,7.88,7.88,0,0,0,1.75,5,32.51,32.51,0,0,0,3.71,4q5.85,5.26,11.31,9.55a72.33,72.33,0,0,0,13.66,8.2l1.75,1.36a2.9,2.9,0,0,1,.49.59,1.09,1.09,0,0,0,.49.39,1.78,1.78,0,0,0,.58,1.46,2.62,2.62,0,0,1,.59,2.05q0,2.34-2.83,4.29a13.1,13.1,0,0,1-5.56,2.34,17.32,17.32,0,0,1-5.56-1.66,69.56,69.56,0,0,1-6.53-3.41q-3.32-2-6.44-4.19t-5.46-4a37.81,37.81,0,0,1-4.39-4.2c-1.89-2-3.74-4-5.56-6s-3.51-3.84-5.07-5.47-2.54-2.43-2.93-2.43-.48,0-.29.09-.36.43-1.66,1.08v35.89a6.21,6.21,0,0,1-1.65,3.41c-1,1.11-2.57,1.72-4.78,1.85Z"></path> <path class="cls-1" d="M2394.15,241.4a73.36,73.36,0,0,0,.69,10.44,63.78,63.78,0,0,1,.68,8.88A23.83,23.83,0,0,1,2395,265a19,19,0,0,1-1.66,4.87,11.51,11.51,0,0,1-3.12,3.9,7.87,7.87,0,0,1-5.07,1.56,8.8,8.8,0,0,1-5.75-2.43,7.21,7.21,0,0,1-2.83-5.56q0-1,.09-2.25c.07-.84.17-1.72.3-2.63q-.19-3.32-.2-6.63v-6.63q0-10.16.2-20.39t.19-21.36q0-8.19-.19-16.48t-.2-18.24q0-8.19-.68-15.89t-.68-15.9a8.06,8.06,0,0,1,1.46-5.27c1-1.17,3.15-1.75,6.53-1.75q5.46,0,7.32,2.53a21.58,21.58,0,0,1,3,6.24c1-.39,2.31-.84,3.81-1.36a11.92,11.92,0,0,1,3.8-.78h1.37a27.44,27.44,0,0,1,8,.88,28.39,28.39,0,0,1,5.46,2.43l.59.39a.4.4,0,0,1,.29.1.39.39,0,0,0,.3.1,25.84,25.84,0,0,1,6.92,5.46,39.24,39.24,0,0,1,5.56,7.8,45.68,45.68,0,0,1,3.71,9,32.37,32.37,0,0,1,1.36,9,32.74,32.74,0,0,1-2.24,11.31,34.82,34.82,0,0,1-18.14,19.51,37.39,37.39,0,0,1-16.29,3.31h-1.76a5,5,0,0,1-1.95-.39,5.19,5.19,0,0,0-.39,2.25V241.4Zm16.58-50.13a22.36,22.36,0,0,0,6.44-16.19,23.23,23.23,0,0,0-4.19-13.26,19.51,19.51,0,0,0-4.88-4.88,15.68,15.68,0,0,0-6.54-2.53l-2.53,1a12.88,12.88,0,0,0-2.83,1.47,15.36,15.36,0,0,0-2,1.46,1.41,1.41,0,0,0-.29.39,1.09,1.09,0,0,1-.49.39c-.26.26-.39,1.49-.39,3.7q0,3.72.29,8.68t.3,6.93V185a71.06,71.06,0,0,0,.39,7.8c.26,2.34.91,3.52,1.95,3.52a27.71,27.71,0,0,0,5.36-.49,22.86,22.86,0,0,0,5.56-2.05Z"></path> <path class="cls-1" d="M2445.84,178.79a58.74,58.74,0,0,1,1.86-14.53,44.71,44.71,0,0,1,5.56-13.17,31.14,31.14,0,0,1,9.16-9.46A22.52,22.52,0,0,1,2475.1,138a23.32,23.32,0,0,1,8.88,1.56,19.13,19.13,0,0,1,6.34,4.1,16.86,16.86,0,0,1,3.8,5.75,18.12,18.12,0,0,1,1.27,6.73,23.41,23.41,0,0,1-14.14,21.56,27.78,27.78,0,0,1-10.44,2.24,16.07,16.07,0,0,1-4.48-.2,40.8,40.8,0,0,1-4.49-1.17,8.89,8.89,0,0,0-.2,1.66v1.08q.2,7.21,2.34,11.31a19.07,19.07,0,0,0,4.69,6.14,12.79,12.79,0,0,0,4.87,2.64,16.24,16.24,0,0,0,3.12.58,17.45,17.45,0,0,0,10.05-2.73l8.87-6.05,2.15.88a5.28,5.28,0,0,1,2.15,1.86,15.5,15.5,0,0,0,.39,1.85,8.58,8.58,0,0,1,.19,2.05,9.14,9.14,0,0,1-1.46,4.58,17,17,0,0,1-2.83,3.22,26.71,26.71,0,0,1-9.46,5.56,42.42,42.42,0,0,1-11.41,1.27,28,28,0,0,1-7.71-1.37,48.29,48.29,0,0,1-7.7-2.93,36.41,36.41,0,0,1-7.32-7,29.68,29.68,0,0,1-4.09-7.41,33.77,33.77,0,0,1-1.95-8.09Q2446,183.47,2445.84,178.79Zm17-10.53a14.18,14.18,0,0,0,2.44.29c1.11.07,2,.1,2.64.1q6.63,0,10.24-3.32a10.5,10.5,0,0,0,3.61-8,9,9,0,0,0-1.57-5.07,4.89,4.89,0,0,0-4.29-2.34,18.35,18.35,0,0,0-3.8.39,4.21,4.21,0,0,0-2.83,1.95,23.66,23.66,0,0,1-1.75,2,10.36,10.36,0,0,0-1.86,2.73,28,28,0,0,0-1.66,4.39A37.08,37.08,0,0,0,2462.81,168.26Z"></path> <path class="cls-1" d="M2613.79,159.67a76,76,0,0,0,1.37,14.73c.9,4.62,1.69,9.53,2.34,14.73a25.53,25.53,0,0,0,2.24,8,19.64,19.64,0,0,1,1.85,8.19c0,3-.87,5.26-2.63,6.83a9.21,9.21,0,0,1-6.34,2.34,7,7,0,0,1-6.34-3.81,29.25,29.25,0,0,1-3.31-8.78,74.23,74.23,0,0,1-1.47-9.75,37.31,37.31,0,0,0-1-6.73,27.34,27.34,0,0,1-1.56-6.34c-.27-2.14-.49-4.26-.69-6.34s-.39-4.16-.58-6.24a34.71,34.71,0,0,0-1.27-6.44q-1.75,3.33-3.8,7.12c-1.37,2.54-2.73,5.14-4.1,7.81l-4,7.8c-1.3,2.53-2.41,4.84-3.31,6.92a42.35,42.35,0,0,0-2.44,6.34q-.89,3-1.66,5.95t-1.76,5.85a42,42,0,0,1-2.73,6.25,11.18,11.18,0,0,1-5.07,1.17,6.79,6.79,0,0,1-5.75-2.73,19.33,19.33,0,0,1-3.12-6.83,57.67,57.67,0,0,1-1.56-8.58q-.49-4.49-1.08-8-.39-3.7-1.07-8t-1.75-8.48q-1.08-4.2-2.35-7.9a26.18,26.18,0,0,0-2.82-6.05,18.25,18.25,0,0,0-4.78,6.05,81.4,81.4,0,0,0-3.71,8.09q-1.67,4.2-2.83,8.19a63.46,63.46,0,0,1-2.14,6.34,29.83,29.83,0,0,0-3.42,9.07c-.58,3.06-1.23,5.85-1.95,8.39a15,15,0,0,1-3.31,6.24q-2.25,2.44-7.51,2.44a5.09,5.09,0,0,1-3-1.07,9.47,9.47,0,0,1-2.44-2.64,15.19,15.19,0,0,1-1.56-3.31,10.51,10.51,0,0,1-.58-3.32,27.35,27.35,0,0,0,.49-3.9c.06-1.3.09-2.66.09-4.1,0-.38.07-1.36.2-2.92s.26-3.22.39-5,.26-3.42.39-5,.19-2.54.19-2.92q0-10.94-.19-15.71t-.39-6.53c-.13-1.17-.26-1.79-.39-1.85s-.2-.62-.2-1.66a12.21,12.21,0,0,0-.68-4.1,12.17,12.17,0,0,1-.68-4.1,5.91,5.91,0,0,1,2.34-4.68,7.77,7.77,0,0,1,5.07-1.95,7.88,7.88,0,0,1,5.46,1.76,10,10,0,0,1,2.83,4.39,22.11,22.11,0,0,1,1.07,5.65c.13,2,.2,3.81.2,5.37a47.51,47.51,0,0,1-.29,4.87,46.94,46.94,0,0,0-.3,5.08,16.78,16.78,0,0,0,.39,3.12q1.17-2.53,2.64-5.66t3.12-6.34c1.1-2.15,2.24-4.19,3.41-6.14a43.78,43.78,0,0,1,3.51-5.08c1.56-1.95,3.38-4,5.46-6.14a9.56,9.56,0,0,1,7-3.22,10.08,10.08,0,0,1,6.63,1.95,12.08,12.08,0,0,1,3.51,4.88,27.73,27.73,0,0,1,1.66,6.53,58.43,58.43,0,0,0,1.27,6.73q1.75,5.67,3.21,12.68t2.83,12.68c.26-.91.69-2.11,1.27-3.61s1.2-3.05,1.85-4.68,1.3-3.12,1.95-4.49,1.17-2.43,1.57-3.21q1.76-3.71,4-8.1a48.48,48.48,0,0,1,5.27-8.19,32.06,32.06,0,0,1,7-6.54,18.58,18.58,0,0,1,9.27-3.12,38.23,38.23,0,0,0,4.29,1.86,8.21,8.21,0,0,1,3.32,2.14,10.4,10.4,0,0,1,2.14,4.39,34.49,34.49,0,0,1,.78,8.39Zm-73.73-36.08a3.36,3.36,0,0,1-1.85,1.36c-1,.39-2,.75-3.13,1.08a21.23,21.23,0,0,1-3.12.68,17.65,17.65,0,0,1-2,.19c-1.18,0-2.22-.74-3.13-2.24a8.41,8.41,0,0,1-1.36-4.39c0-.65.06-1,.19-1.17q3.9-8.38,16.1-13t34-4.58a63.47,63.47,0,0,1,16.29,2.24A65.35,65.35,0,0,1,2606,109l2.34,1.36a7.91,7.91,0,0,1,2.63,2.93,10.84,10.84,0,0,1,1.66,5.07,3.58,3.58,0,0,1-1.27,2.44,8,8,0,0,1-3.8,1.27q-2.53-1-6.83-2.25t-9.26-2.34q-5-1.06-9.95-1.85a58.06,58.06,0,0,0-8.88-.78,62.42,62.42,0,0,0-15.6,2.24,75.3,75.3,0,0,0-15.41,5.76Z"></path> <path class="cls-1" d="M2676.21,201c-1.17,1.56-2.38,3.15-3.61,4.78a28.36,28.36,0,0,1-10.53,8.48,30.47,30.47,0,0,1-8.68,2.54,4,4,0,0,1-1.76.19,10.54,10.54,0,0,1-5.17-1.36,18.35,18.35,0,0,1-4.39-3.42,27.51,27.51,0,0,1-3.41-4.39,16.81,16.81,0,0,1-2-4.48q-1-3.31-2.14-7.61a46.31,46.31,0,0,1-1.17-11.7c0-5.47.12-10.76.39-15.9s.58-9.14,1-12a33.39,33.39,0,0,1,1-5.85,12.33,12.33,0,0,0,.58-3.51q.59-2.93.88-5.17a14.46,14.46,0,0,1,.68-3.22q1.17-6.43,1.76-10.14a25.57,25.57,0,0,1,1.36-5.56,4.38,4.38,0,0,1,2-2.44,8.9,8.9,0,0,1,3.61-.58c3.25,0,5.39,1.1,6.44,3.31a16.75,16.75,0,0,1,1.56,7.22.57.57,0,0,0-.2.39,1.41,1.41,0,0,1-.19.58,3.39,3.39,0,0,0-.2,1.37l-2.73,22.24c-.26.78-.39,1.1-.39,1a1.13,1.13,0,0,0,.2.78c0,.13.06.2.19.2a28.7,28.7,0,0,1,10-1.95,45.64,45.64,0,0,1,5.46.49,16,16,0,0,1,5.46,1.46c.13.13.46.42,1,.88s1.07.91,1.66,1.36,1.13.88,1.65,1.27a2.8,2.8,0,0,0,1,.58,14.73,14.73,0,0,0,5.46-1.07q2.73-1.07,5.07-2.24a.4.4,0,0,0,.3-.1.4.4,0,0,1,.29-.1.42.42,0,0,0,.29-.09.37.37,0,0,1,.29-.1,30.5,30.5,0,0,0,8.1-5.17q3-2.83,3-5.95v-2.15a22.85,22.85,0,0,1,1-6.34,28,28,0,0,0,1-7.7v-2c.26-1.17,1.24-2.18,2.93-3a9.67,9.67,0,0,1,3.9-1.27,6.81,6.81,0,0,1,4.88,1.66,10.87,10.87,0,0,1,2.73,4.58c0,.13,0,.52-.1,1.17s-.13,2-.2,4.1-.22,5-.48,8.87-.59,9.07-1,15.7c0,.27,0,1.05-.1,2.34s-.09,3.65-.09,7v6.34q0,3.6.19,8.48a57.79,57.79,0,0,0,.39,6.54,64.42,64.42,0,0,1,.39,7.31v2.54a19.92,19.92,0,0,0,1.07,6,18.24,18.24,0,0,1,1.08,5.27,5,5,0,0,1-.88,2.24c-.59,1-1.2,1.47-1.85,1.47l-3.32.39a24.36,24.36,0,0,1-2.54-.39,6.15,6.15,0,0,1-3.31-1.56,26.87,26.87,0,0,1-2.83-4.49,34.68,34.68,0,0,1-1.46-4.29l-.59-1.17a37.1,37.1,0,0,1-1.17-5.46c-.26-2.08-.55-5-.88-8.68s-.55-8.55-.68-14.54c0-.65,0-1.56.1-2.73s.22-3.77.49-7.8a8,8,0,0,1-2.83,2.63c-1.5,1-3.12,2-4.88,3s-3.31,2-4.68,3-2,1.79-2,2.44a29,29,0,0,1-.88,6.92q-.87,3.61-1.26,5.76a45.31,45.31,0,0,1-2.83,6.73q-1.28,2.23-2.25,4.19ZM2648.71,188a28.44,28.44,0,0,0,1.36,8.87c.91,2.8,1.88,4.33,2.93,4.59a10.49,10.49,0,0,0,6.53-2.54,28.11,28.11,0,0,0,5.76-6.24,43.15,43.15,0,0,0,4.19-7.71,22.62,22.62,0,0,0,1.85-6.92,4.83,4.83,0,0,1-1.95,1.27,6.93,6.93,0,0,1-2,.29,6.33,6.33,0,0,1-1.27-.1,4.85,4.85,0,0,0-.87-.09c0-.13-.33-.26-1-.4a8.27,8.27,0,0,1-2.14-.78,8.14,8.14,0,0,1-2.35-1.85,6.85,6.85,0,0,1-1.56-3.61l-2.14.2a21.65,21.65,0,0,0-4.1.29,3.87,3.87,0,0,0-1.75.68h-1c-.26,0-.42.2-.49.59a7.68,7.68,0,0,0-.09,1.17Z"></path> <path class="cls-1" d="M2794.8,226.77a9.72,9.72,0,0,1-4.19-.87,14.4,14.4,0,0,1-3.12-2,12.68,12.68,0,0,1-2-2.15c-.52-.72-.91-1.27-1.17-1.66a3.62,3.62,0,0,0-.1-.68,12.29,12.29,0,0,1-.09-1.85c0-1.17.06-2.86.19-5.07s.52-5.27,1.17-9.17V161.23c0-1.95-.07-3.73-.19-5.36s-.33-3.35-.59-5.17c0-.78-.1-2.24-.29-4.39s-.29-4.32-.29-6.53v-2.15a9.91,9.91,0,0,1,.19-1.95c.39-.39,1-1.14,1.95-2.24a3.82,3.82,0,0,1,2.93-1.66,18.34,18.34,0,0,1,7.6,1.66q3.7,1.65,4.1,5,.78,3.71,1.17,6.93c.26,2.14.42,4.36.49,6.63s.13,4.75.19,7.41.17,5.63.3,8.88V170a4.57,4.57,0,0,0,1.75-1.07q1.36-1.06,4.1-3.41c1.82-1.57,4.13-3.64,6.92-6.25s6.21-5.78,10.24-9.55c-.26.13-.09-.17.49-.88a18.35,18.35,0,0,1,2.54-2.44,22.09,22.09,0,0,1,3.9-2.54,10.18,10.18,0,0,1,4.78-1.17,7.66,7.66,0,0,1,3.12.69A23.51,23.51,0,0,1,2844,145l3.12,3.32v2.15a16.67,16.67,0,0,1-.39,3.41,6,6,0,0,1-2.34,3.41,95.29,95.29,0,0,1-11.31,9q-6.06,4.09-11.71,8.58a1.63,1.63,0,0,0-.68.68,10,10,0,0,1-.49,1.07,7.89,7.89,0,0,0,1.76,5,31.69,31.69,0,0,0,3.7,4q5.85,5.26,11.32,9.55a72.22,72.22,0,0,0,13.65,8.2l1.76,1.36a2.75,2.75,0,0,1,.48.59,1.09,1.09,0,0,0,.49.39,1.79,1.79,0,0,0,.59,1.46,2.67,2.67,0,0,1,.58,2.05q0,2.34-2.83,4.29a13.12,13.12,0,0,1-5.55,2.34,17.17,17.17,0,0,1-5.56-1.66,68.48,68.48,0,0,1-6.54-3.41q-3.32-2-6.44-4.19t-5.46-4a38.64,38.64,0,0,1-4.39-4.2c-1.88-2-3.74-4-5.56-6s-3.51-3.84-5.07-5.47-2.53-2.43-2.92-2.43-.49,0-.3.09-.36.43-1.65,1.08v35.89a6.23,6.23,0,0,1-1.66,3.41c-1,1.11-2.57,1.72-4.78,1.85Z"></path> <path class="cls-1" d="M2886.29,241.4a73.43,73.43,0,0,0,.68,10.44,63.78,63.78,0,0,1,.68,8.88,23,23,0,0,1-.49,4.29,18.55,18.55,0,0,1-1.65,4.87,11.54,11.54,0,0,1-3.13,3.9,7.87,7.87,0,0,1-5.07,1.56,8.8,8.8,0,0,1-5.75-2.43,7.21,7.21,0,0,1-2.83-5.56c0-.65,0-1.4.1-2.25s.16-1.72.29-2.63q-.2-3.32-.19-6.63v-6.63q0-10.16.19-20.39t.2-21.36q0-8.19-.2-16.48t-.19-18.24q0-8.19-.69-15.89t-.68-15.9a8.12,8.12,0,0,1,1.46-5.27c1-1.17,3.15-1.75,6.54-1.75,3.64,0,6.07.84,7.31,2.53a21.34,21.34,0,0,1,3,6.24c1-.39,2.3-.84,3.8-1.36a11.92,11.92,0,0,1,3.8-.78h1.37a27.56,27.56,0,0,1,8,.88,28.67,28.67,0,0,1,5.46,2.43l.58.39a.45.45,0,0,1,.3.1.37.37,0,0,0,.29.1,25.53,25.53,0,0,1,6.92,5.46,39.24,39.24,0,0,1,5.56,7.8,45.08,45.08,0,0,1,3.71,9,32,32,0,0,1,1.36,9,32.74,32.74,0,0,1-2.24,11.31,34.82,34.82,0,0,1-18.14,19.51,37.39,37.39,0,0,1-16.29,3.31h-1.75a5,5,0,0,1-2-.39,5,5,0,0,0-.39,2.25V241.4Zm16.58-50.13a22.36,22.36,0,0,0,6.43-16.19,23.23,23.23,0,0,0-4.19-13.26,19.34,19.34,0,0,0-4.88-4.88,15.59,15.59,0,0,0-6.53-2.53l-2.54,1a13.1,13.1,0,0,0-2.83,1.47,15,15,0,0,0-2,1.46,1.46,1.46,0,0,0-.3.39,1.05,1.05,0,0,1-.48.39c-.27.26-.39,1.49-.39,3.7,0,2.48.09,5.37.29,8.68s.29,5.63.29,6.93V185a71.06,71.06,0,0,0,.39,7.8c.26,2.34.91,3.52,1.95,3.52a27.89,27.89,0,0,0,5.37-.49,23,23,0,0,0,5.55-2.05Z"></path> <path class="cls-1" d="M3006.05,207.66c.39,1,.78,2.11,1.17,3.22a9.6,9.6,0,0,1,.59,3.22,3.63,3.63,0,0,1-.88,2.53,6.5,6.5,0,0,1-2.14,1.56,12.86,12.86,0,0,1-5.17,1.17c-2.61,0-4.75-1.46-6.44-4.39a40.69,40.69,0,0,1-4.1-10.92q-1.56-6.53-2.63-13.85c-.72-4.88-1.4-9.26-2-13.17a34.8,34.8,0,0,1-3.8,10.34,63.91,63.91,0,0,1-8.1,12,56.17,56.17,0,0,1-10.73,9.85,20.31,20.31,0,0,1-11.7,4.1,14.47,14.47,0,0,1-7.7-1.86,12.82,12.82,0,0,1-4.59-4.58,18.61,18.61,0,0,1-2.14-6.15,37.59,37.59,0,0,1-.59-6.34q0-6.44,3.22-15.89a90.2,90.2,0,0,1,8.78-18.44,66.06,66.06,0,0,1,12.87-15.31q7.32-6.33,15.51-6.34a16.12,16.12,0,0,1,4,.59q2.24.58,4.58,1.46a27.62,27.62,0,0,1,4.49,2.15,39.73,39.73,0,0,1,3.7,2.43,13.6,13.6,0,0,1,4.49,7.42,76.16,76.16,0,0,1,1.76,9.75q1.35,9.75,2.14,17.65a118.67,118.67,0,0,0,2.93,16.68l1.17,7.22Zm-55-10.14a.42.42,0,0,0,.09.29.38.38,0,0,1,.1.29q2.53-.19,5.85-3.41a63,63,0,0,0,6.64-7.71,96.5,96.5,0,0,0,6.14-9.46,55.65,55.65,0,0,0,4.19-8.87q.78-1.76,1.86-3.9c.71-1.43,1.43-2.9,2.14-4.39a45,45,0,0,0,1.76-4.2,10.46,10.46,0,0,0,.68-3.31c-.65-.26-1.24-.52-1.76-.78a3.85,3.85,0,0,0-1.75-.39,10.47,10.47,0,0,0-7.61,3.31,37.8,37.8,0,0,0-5.75,7.41,60.56,60.56,0,0,0-4,7.9,46.15,46.15,0,0,1-2.15,4.78,59.27,59.27,0,0,0-4.58,10.54,34.86,34.86,0,0,0-1.85,10.92Z"></path> <path class="cls-1" d="M3054.82,201a5,5,0,0,1,3.8,1.56,5.46,5.46,0,0,1,1.46,3.9,4.41,4.41,0,0,1-1.07,3.12,6.64,6.64,0,0,1-2.83,1.76,21.83,21.83,0,0,1-4,.87c-1.49.2-2.95.36-4.38.49q-3.33-1-6.34-1.76a19.29,19.29,0,0,1-6.15-2.92q-4.87-4.1-9.46-8.78a33.81,33.81,0,0,1-7.12-10.73,10.12,10.12,0,0,1-1.66-3.12c-.45-1.3-.84-2.63-1.17-4a31.37,31.37,0,0,1-.68-3.9,29.71,29.71,0,0,1-.19-3,41.23,41.23,0,0,1,.87-8.19,43.65,43.65,0,0,1,2.64-8.39,36.81,36.81,0,0,1,4.29-7.51,24,24,0,0,1,6.05-5.76l7.41-3.31q2.73-.78,5.46-1.76a17.26,17.26,0,0,1,5.85-1q4.49.39,6.24,1.65t2.93,5.76a10.5,10.5,0,0,1-1.17,2.73,4.81,4.81,0,0,1-2.93,2.34,13.16,13.16,0,0,1-4.19,1.17,11.26,11.26,0,0,0-4,1.17,26.81,26.81,0,0,0-5.27,3.12,38.66,38.66,0,0,0-3.12,2.73,9.15,9.15,0,0,0-2,2.73,10.8,10.8,0,0,0-1.95,4.88,34.93,34.93,0,0,0-.39,4.88,27.41,27.41,0,0,0,1.27,8.19,42.58,42.58,0,0,0,3.22,7.71,30.49,30.49,0,0,0,4.39,6.24,18.83,18.83,0,0,0,4.58,3.8,9.89,9.89,0,0,0,7,3.32Z"></path> <path class="cls-1" d="M3093.83,212.34a10.14,10.14,0,0,1-5.95-1.85q-2.64-1.86-5.56-3.61a26.55,26.55,0,0,1-10-9.75q-3.51-6-3.51-14.83a44.18,44.18,0,0,1,1.46-10.24q1.47-6,2.64-11a28.9,28.9,0,0,1,2.73-5.95,42.51,42.51,0,0,1,5.36-7.41,38,38,0,0,1,7.32-6.34,14.94,14.94,0,0,1,8.39-2.73,6.29,6.29,0,0,1,3.51,1.17,33.27,33.27,0,0,0,5.65,2.92c1.95.78,3.94,1.56,5.95,2.34s4,1.63,6,2.54a24.4,24.4,0,0,1,5.46,3.51,11.94,11.94,0,0,1,3.32,4.29q1.17,2.53,2.34,4.88a11.26,11.26,0,0,1,1.17,4c.13,1.36.2,2.76.2,4.19v3.71a30.43,30.43,0,0,1-2.44,11.21,71.55,71.55,0,0,1-5.37,10q-1.56,2.54-4.09,5.85a51.12,51.12,0,0,1-5.66,6.24,39.1,39.1,0,0,1-6.53,5,13.41,13.41,0,0,1-6.93,2c-.65,0-1.33,0-2.05-.1s-1.46-.1-2.24-.1ZM3113,165.72q0-5.66-4.1-8.19a16.72,16.72,0,0,0-9-2.54,8.6,8.6,0,0,0-6.64,3,27.63,27.63,0,0,0-4.68,7.41,40.21,40.21,0,0,0-2.83,9.36,51.3,51.3,0,0,0-.87,8.68,29.81,29.81,0,0,0,.29,3.12,28.28,28.28,0,0,0,1.07,4.88,14.45,14.45,0,0,0,2.25,4.49,4.53,4.53,0,0,0,3.8,1.95,10.58,10.58,0,0,0,3.9-.69q1.76-.67,3.9-1.65a19.07,19.07,0,0,0,5.46-5.27,32.09,32.09,0,0,0,3.81-7.22,55.44,55.44,0,0,0,2.34-8.19q.87-4.29,1.27-8.19Z"></path> <path class="cls-1" d="M3245.59,159.67A76,76,0,0,0,3247,174.4q1.37,6.93,2.34,14.73a25.56,25.56,0,0,0,2.25,8,19.8,19.8,0,0,1,1.85,8.19c0,3-.88,5.26-2.64,6.83a9.2,9.2,0,0,1-6.33,2.34,7,7,0,0,1-6.34-3.81,29,29,0,0,1-3.32-8.78,74.18,74.18,0,0,1-1.46-9.75,38,38,0,0,0-1-6.73,27.34,27.34,0,0,1-1.56-6.34c-.26-2.14-.49-4.26-.68-6.34s-.39-4.16-.59-6.24a34.66,34.66,0,0,0-1.26-6.44q-1.76,3.33-3.81,7.12c-1.36,2.54-2.73,5.14-4.09,7.81s-2.71,5.26-4,7.8-2.41,4.84-3.32,6.92a44.64,44.64,0,0,0-2.44,6.34c-.58,2-1.14,4-1.66,5.95s-1.1,3.9-1.75,5.85a42,42,0,0,1-2.73,6.25,11.18,11.18,0,0,1-5.07,1.17,6.81,6.81,0,0,1-5.76-2.73,19.51,19.51,0,0,1-3.12-6.83,57.67,57.67,0,0,1-1.56-8.58c-.33-3-.68-5.66-1.07-8s-.62-5.14-1.08-8-1-5.69-1.75-8.48-1.5-5.43-2.34-7.9a26.59,26.59,0,0,0-2.83-6.05,18.51,18.51,0,0,0-4.78,6.05,83.68,83.68,0,0,0-3.7,8.09q-1.66,4.2-2.83,8.19a63.1,63.1,0,0,1-2.15,6.34,29.8,29.8,0,0,0-3.41,9.07c-.59,3.06-1.24,5.85-1.95,8.39a15.15,15.15,0,0,1-3.32,6.24q-2.25,2.44-7.51,2.44a5.06,5.06,0,0,1-3-1.07,9.32,9.32,0,0,1-2.44-2.64,15.19,15.19,0,0,1-1.56-3.31,10.54,10.54,0,0,1-.59-3.32,27.35,27.35,0,0,0,.49-3.9c.07-1.3.1-2.66.1-4.1,0-.38.06-1.36.19-2.92s.26-3.22.39-5,.26-3.42.39-5,.2-2.54.2-2.92q0-10.94-.2-15.71t-.39-6.53c-.13-1.17-.26-1.79-.39-1.85s-.19-.62-.19-1.66a12.46,12.46,0,0,0-.68-4.1,12.17,12.17,0,0,1-.69-4.1,5.91,5.91,0,0,1,2.34-4.68,7.77,7.77,0,0,1,5.08-1.95,7.88,7.88,0,0,1,5.46,1.76,10.09,10.09,0,0,1,2.83,4.39,22.55,22.55,0,0,1,1.07,5.65c.13,2,.19,3.81.19,5.37a44.82,44.82,0,0,1-.29,4.87,49.46,49.46,0,0,0-.29,5.08,16.78,16.78,0,0,0,.39,3.12q1.17-2.53,2.63-5.66t3.12-6.34c1.11-2.15,2.25-4.19,3.42-6.14a43.78,43.78,0,0,1,3.51-5.08c1.56-1.95,3.38-4,5.46-6.14a9.55,9.55,0,0,1,7-3.22,10.08,10.08,0,0,1,6.63,1.95,12.08,12.08,0,0,1,3.51,4.88,27.25,27.25,0,0,1,1.66,6.53,63.05,63.05,0,0,0,1.27,6.73q1.75,5.67,3.22,12.68t2.83,12.68c.26-.91.68-2.11,1.27-3.61s1.2-3.05,1.85-4.68,1.3-3.12,2-4.49,1.17-2.43,1.56-3.21q1.76-3.71,4-8.1a47.87,47.87,0,0,1,5.27-8.19,31.83,31.83,0,0,1,7-6.54,18.51,18.51,0,0,1,9.26-3.12,38.23,38.23,0,0,0,4.29,1.86,8.14,8.14,0,0,1,3.32,2.14,10.4,10.4,0,0,1,2.15,4.39,35,35,0,0,1,.78,8.39Zm-73.74-36.08A3.32,3.32,0,0,1,3170,125q-1.47.58-3.12,1.08a21.8,21.8,0,0,1-3.12.68,18,18,0,0,1-2.05.19c-1.17,0-2.21-.74-3.12-2.24a8.42,8.42,0,0,1-1.37-4.39,2,2,0,0,1,.2-1.17q3.9-8.38,16.09-13t34-4.58a63.53,63.53,0,0,1,16.29,2.24,65.45,65.45,0,0,1,13.94,5.17l2.34,1.36a8,8,0,0,1,2.64,2.93,11.07,11.07,0,0,1,1.66,5.07,3.66,3.66,0,0,1-1.27,2.44,8.13,8.13,0,0,1-3.81,1.27q-2.53-1-6.82-2.25c-2.87-.84-5.95-1.62-9.27-2.34s-6.63-1.33-9.95-1.85a57.83,57.83,0,0,0-8.87-.78,62.49,62.49,0,0,0-15.61,2.24,75.52,75.52,0,0,0-15.41,5.76Z"></path> <path class="cls-1" d="M3308,201l-3.6,4.78a29.94,29.94,0,0,1-4.39,4.58,29.52,29.52,0,0,1-6.15,3.9,30.47,30.47,0,0,1-8.68,2.54,3.94,3.94,0,0,1-1.75.19,10.48,10.48,0,0,1-5.17-1.36,18.35,18.35,0,0,1-4.39-3.42,27.57,27.57,0,0,1-3.42-4.39,17.08,17.08,0,0,1-2-4.48c-.66-2.21-1.37-4.75-2.15-7.61a46.31,46.31,0,0,1-1.17-11.7c0-5.47.13-10.76.39-15.9s.59-9.14,1-12a32.64,32.64,0,0,1,1-5.85,12.37,12.37,0,0,0,.59-3.51q.58-2.93.87-5.17a14.34,14.34,0,0,1,.69-3.22q1.17-6.43,1.75-10.14a25.47,25.47,0,0,1,1.37-5.56,4.38,4.38,0,0,1,2.05-2.44,8.81,8.81,0,0,1,3.6-.58q4.88,0,6.44,3.31a16.75,16.75,0,0,1,1.56,7.22.55.55,0,0,0-.19.39,1.46,1.46,0,0,1-.2.58,3.43,3.43,0,0,0-.19,1.37L3283,154.8c-.27.78-.39,1.1-.39,1a1.13,1.13,0,0,0,.19.78.18.18,0,0,0,.2.2,28.65,28.65,0,0,1,9.94-1.95,45.93,45.93,0,0,1,5.47.49,16.07,16.07,0,0,1,5.46,1.46c.13.13.45.42,1,.88s1.08.91,1.66,1.36l1.66,1.27a2.8,2.8,0,0,0,1,.58,14.82,14.82,0,0,0,5.47-1.07q2.73-1.07,5.07-2.24a.38.38,0,0,0,.29-.1.4.4,0,0,1,.29-.1.45.45,0,0,0,.3-.09.37.37,0,0,1,.29-.1A30.26,30.26,0,0,0,3329,152q3-2.83,3-5.95v-2.15a23.19,23.19,0,0,1,1-6.34,28,28,0,0,0,1-7.7v-2c.26-1.17,1.23-2.18,2.92-3a9.67,9.67,0,0,1,3.9-1.27,6.81,6.81,0,0,1,4.88,1.66,10.87,10.87,0,0,1,2.73,4.58c0,.13,0,.52-.1,1.17s-.13,2-.19,4.1-.23,5-.49,8.87-.58,9.07-1,15.7c0,.27,0,1.05-.1,2.34s-.1,3.65-.1,7v6.34q0,3.6.2,8.48a55.55,55.55,0,0,0,.39,6.54,64.42,64.42,0,0,1,.39,7.31v2.54a19.61,19.61,0,0,0,1.07,6,18.5,18.5,0,0,1,1.07,5.27,4.9,4.9,0,0,1-.88,2.24c-.58,1-1.2,1.47-1.85,1.47l-3.32.39a24.36,24.36,0,0,1-2.53-.39,6.18,6.18,0,0,1-3.32-1.56,27.56,27.56,0,0,1-2.83-4.49,36.44,36.44,0,0,1-1.46-4.29l-.58-1.17a37.1,37.1,0,0,1-1.17-5.46c-.27-2.08-.56-5-.88-8.68s-.56-8.55-.68-14.54q0-1,.09-2.73t.49-7.8a7.92,7.92,0,0,1-2.83,2.63c-1.49,1-3.12,2-4.87,3s-3.32,2-4.69,3-2,1.79-2,2.44a29.5,29.5,0,0,1-.88,6.92q-.89,3.61-1.27,5.76a43.25,43.25,0,0,1-2.83,6.73q-1.26,2.23-2.24,4.19ZM3280.5,188a28.16,28.16,0,0,0,1.37,8.87c.9,2.8,1.88,4.33,2.92,4.59a10.54,10.54,0,0,0,6.54-2.54,28.07,28.07,0,0,0,5.75-6.24,41.92,41.92,0,0,0,4.19-7.71,22.39,22.39,0,0,0,1.86-6.92,4.83,4.83,0,0,1-2,1.27,7,7,0,0,1-1.95.29,6.26,6.26,0,0,1-1.27-.1,5,5,0,0,0-.88-.09c0-.13-.33-.26-1-.4a8.27,8.27,0,0,1-4.48-2.63,6.85,6.85,0,0,1-1.56-3.61l-2.15.2a21.46,21.46,0,0,0-4.09.29,3.87,3.87,0,0,0-1.76.68h-1c-.27,0-.43.2-.49.59a6.6,6.6,0,0,0-.1,1.17Z"></path> <path class="cls-1" d="M4016.22,236.33l-50.93-120.24-12.19,46.56c-48.2-21.73-118.85-35.58-205.25-40.13-93.27-4.92-200.12,1.31-309,18l2.27,14.83c206-31.61,399.31-24.16,500.22,18.52l-45.69,12.26Z"></path> <path class="cls-1" d="M3976.35,362H148.65A149.07,149.07,0,0,1,0,213.35v-64.7A149.07,149.07,0,0,1,148.65,0h3827.7A149.07,149.07,0,0,1,4125,148.65v64.7A149.07,149.07,0,0,1,3976.35,362ZM148.65,5A144.08,144.08,0,0,0,5,148.65v64.7A144.08,144.08,0,0,0,148.65,357h3827.7A144.08,144.08,0,0,0,4120,213.35v-64.7A144.08,144.08,0,0,0,3976.35,5Z"></path> </g> </g> </svg> 