<?xml version="1.0" encoding="UTF-8"?> <svg xmlns="http://www.w3.org/2000/svg" viewBox="0 0 563.73 151.78"> <defs> <style>.cls-1{fill:#fff;}</style> </defs> <g id="Layer_2" data-name="Layer 2"> <g id="_ÎÓÈ_1" data-name="—ÎÓÈ_1"> <path class="cls-1" d="M160.9,47.8q.16-6.15.75-10.77a55.22,55.22,0,0,1,1.46-7.69A7.78,7.78,0,0,1,165.4,29a7.3,7.3,0,0,1,1.06.11l1.58.24,1.58.24a8.1,8.1,0,0,0,1.22.12h.71c0,.47,0,1.17-.12,2.09s-.17,1.88-.27,2.87-.2,1.95-.28,2.84-.12,1.56-.12,2,0,.73,0,1.26-.05,1.09-.08,1.69,0,1.17-.08,1.7,0,.95,0,1.26a9.08,9.08,0,0,0,1.22,5.17q1.22,1.77,4.38,1.77a1.06,1.06,0,0,0,.9-.51,1.83,1.83,0,0,0,.36-1.07c-.06-.73-.1-1.48-.12-2.24s0-1.57,0-2.41q0-2.37.28-6.07t.74-8l1-8.87q.51-4.57,1-8.72c.31-2.76.59-5.25.82-7.49s.39-4,.44-5.25a2,2,0,0,0-1.22-1.3A6.21,6.21,0,0,0,177.78,0h-.71q-1.26.08-1.65,2.76-.79,6.71-1.62,12c-.55,3.5-1.17,6.66-1.85,9.5h-.32c-.21,0-.55,0-1,.08a14.25,14.25,0,0,1-1.73.08h-1a11.4,11.4,0,0,1-3.23-.35,1.64,1.64,0,0,1-1.11-1.78c0-.68.06-1.51.16-2.48s.21-2,.32-2.92.21-1.88.31-2.72a15.69,15.69,0,0,0,.16-1.9c0-.57,0-1.18-.08-1.81a9.6,9.6,0,0,0-.31-1.77,4.56,4.56,0,0,0-.67-1.42,2.25,2.25,0,0,0-1.15-.83L160,5.76a7.5,7.5,0,0,0-1.27.16,1,1,0,0,0-.86,1.1V8c0,1.36-.08,3.05-.24,5s-.34,4.13-.55,6.39-.46,4.54-.75,6.83-.54,4.4-.75,6.34-.4,3.65-.55,5.09-.24,2.46-.24,3a13.52,13.52,0,0,1-.12,1.38,14,14,0,0,0-.12,1.62A5.08,5.08,0,0,0,155,46,4.09,4.09,0,0,0,156,47.36a3.07,3.07,0,0,0,1.38.67,6.8,6.8,0,0,0,1.46.16A7.94,7.94,0,0,0,160.9,47.8Z"></path> <path class="cls-1" d="M213.75,44.41l-.55-1.58-.48-2.92a48.32,48.32,0,0,1-1.18-6.74q-.31-3.2-.87-7.14a30.68,30.68,0,0,0-.71-4,5.42,5.42,0,0,0-1.81-3,15,15,0,0,0-1.5-1,12,12,0,0,0-1.81-.87c-.63-.23-1.25-.43-1.86-.59a6.29,6.29,0,0,0-1.61-.23A9.47,9.47,0,0,0,195.09,19a26.82,26.82,0,0,0-5.2,6.19,36.45,36.45,0,0,0-3.55,7.45A20.71,20.71,0,0,0,185,39a15.09,15.09,0,0,0,.24,2.57,7.37,7.37,0,0,0,.86,2.48A5.15,5.15,0,0,0,188,45.94a5.85,5.85,0,0,0,3.11.75A8.2,8.2,0,0,0,195.84,45a22.63,22.63,0,0,0,4.34-4,25.4,25.4,0,0,0,3.28-4.85A13.88,13.88,0,0,0,205,32c.27,1.58.54,3.36.83,5.33s.64,3.84,1.07,5.6a16.54,16.54,0,0,0,1.65,4.41,3,3,0,0,0,2.61,1.78,4.85,4.85,0,0,0,1-.12,5.82,5.82,0,0,0,1.07-.35,2.52,2.52,0,0,0,.86-.64,1.44,1.44,0,0,0,.36-1,3.82,3.82,0,0,0-.24-1.3C214.06,45.26,213.91,44.83,213.75,44.41ZM203.14,23.58a16,16,0,0,1-.71,1.7c-.29.6-.58,1.2-.87,1.77s-.54,1.11-.75,1.58a21.91,21.91,0,0,1-1.69,3.59A37.42,37.42,0,0,1,196.63,36,25.44,25.44,0,0,1,194,39.16a4.14,4.14,0,0,1-2.37,1.38.21.21,0,0,0,0-.12s0-.06,0-.12v-.39a13.91,13.91,0,0,1,.75-4.42,23.32,23.32,0,0,1,1.85-4.26A17.29,17.29,0,0,0,195,29.3a25.14,25.14,0,0,1,1.61-3.19,15.25,15.25,0,0,1,2.33-3A4.24,4.24,0,0,1,202,21.77a1.51,1.51,0,0,1,.71.16c.21.1.44.21.71.31A4.28,4.28,0,0,1,203.14,23.58Z"></path> <path class="cls-1" d="M250.11,46.93a5.15,5.15,0,0,0,1.3-.35,5.06,5.06,0,0,0,1.7-1.7,4.38,4.38,0,0,0,.55-2.05,2.44,2.44,0,0,0-.44-1.42,4.46,4.46,0,0,0-1.1-1.11,9.52,9.52,0,0,0-1.42-.82q-.75-.36-1.38-.6c-.58-.26-1.29-.63-2.13-1.1s-1.72-1-2.64-1.58-1.83-1.18-2.72-1.81-1.66-1.21-2.29-1.74a33.94,33.94,0,0,0,4.1-2.68c1.32-1,2.51-2,3.59-2.92s2-1.81,2.76-2.6,1.3-1.37,1.62-1.74a3.86,3.86,0,0,0,.39-1.1,6,6,0,0,0,.08-.94,4.6,4.6,0,0,0-.08-.87,5.19,5.19,0,0,1-.08-.95,2.8,2.8,0,0,0-2.44-1.58,3.2,3.2,0,0,0-2.45,1c-.63.68-1.31,1.47-2.05,2.37l-5.83,5.67c.1-1.05.19-2.23.27-3.55s.12-2.33.12-3.07a14.67,14.67,0,0,1,.2-2,14.22,14.22,0,0,0,.19-1.94,4.84,4.84,0,0,0-.55-2.4,2.06,2.06,0,0,0-2-1c-.11,0-.25,0-.43,0l-.67.12-2,.32c-.68.1-1.05.36-1.1.78V15q0,2.13-.24,5.28l-.71,7c-.26-.32-.6-.71-1-1.18L230,24.65c-.45-.5-.87-1-1.27-1.38a8.17,8.17,0,0,0-.9-.87c-.74-1-1.41-2.08-2-3.08a17.31,17.31,0,0,0-2.72-3.23,3.21,3.21,0,0,0-.95-.16,2.07,2.07,0,0,0-2,1.54,9.15,9.15,0,0,0-.59,3.35,5.16,5.16,0,0,0,1.1,3.35,31.92,31.92,0,0,0,2.29,2.57,5.43,5.43,0,0,0,1,1.18c.63.63,1.34,1.32,2.13,2s1.58,1.44,2.37,2.09a17.86,17.86,0,0,0,1.81,1.38A18.1,18.1,0,0,1,228.46,35c-.55.42-1.12.83-1.7,1.22s-1.22.82-1.93,1.26-1.57,1-2.56,1.78-2.16,1.62-3.16,2.48a4.46,4.46,0,0,0-1.65,3,1.3,1.3,0,0,0,.47,1.14,4.75,4.75,0,0,1,.79.75,7,7,0,0,1,1,.56,5.65,5.65,0,0,0,1.11.55,6.07,6.07,0,0,0,2.48-.87,8,8,0,0,0,2.56-2.52,15.84,15.84,0,0,1,2.57-2.61,35.9,35.9,0,0,0,2.72-2.44l-1.89,9.07a1.4,1.4,0,0,0,.55,1.1,3.84,3.84,0,0,0,2.44.87,7.58,7.58,0,0,0,2.45-.47l.79-.24a1.13,1.13,0,0,0,.23-.55l2.13-10.65a9.3,9.3,0,0,1,1.58,1.26,7.54,7.54,0,0,0,1.5,1.19,27.68,27.68,0,0,1,4.34,3.15A18.9,18.9,0,0,0,249.64,47a.47.47,0,0,0,.23,0A.49.49,0,0,1,250.11,46.93Z"></path> <path class="cls-1" d="M302.6,45.16a4.5,4.5,0,0,1-1-1.11,6.9,6.9,0,0,1-.74-2.88c-.11-.89-.2-1.8-.28-2.72s-.2-1.83-.36-2.72a9.64,9.64,0,0,1-.07-1.14V33.44c.1-2.73.17-4.69.19-5.87s0-2,0-2.41v-.55a9.83,9.83,0,0,1,.24-2.37,9.8,9.8,0,0,0,.24-2.36v-.63a2.8,2.8,0,0,0-.08-.64c-.06-.57-.5-1.05-1.34-1.42a5.65,5.65,0,0,0-2.06-.55,3.79,3.79,0,0,0-1.93.48,3.49,3.49,0,0,0-1.3,1.26,3.82,3.82,0,0,0-.39,1.26A8.61,8.61,0,0,1,292.62,22a14.92,14.92,0,0,0-1.3,2.36,29.38,29.38,0,0,1-1.62,3.08q-1.57,2.6-2.56,4.38c-.66,1.18-1.28,2.28-1.85,3.31s-1.2,2.08-1.86,3.15-1.51,2.36-2.56,3.83a4.33,4.33,0,0,1-.2-.79c0-.21-.06-.53-.12-.95A56.78,56.78,0,0,1,280,34.7c-.1-2.1-.16-4.2-.16-6.31,0-1.63,0-2.95,0-4a14.54,14.54,0,0,1,.36-2.88,14.14,14.14,0,0,0-.36-2.05c-.18-.79-.56-1.23-1.14-1.34a14.81,14.81,0,0,1-1.81-.67,3.62,3.62,0,0,0-1.5-.35,4.17,4.17,0,0,0-1.34.39,4.54,4.54,0,0,0-1,.67,1.66,1.66,0,0,0-.39.63,3.16,3.16,0,0,0-.16.79,4,4,0,0,1-.36,1.14,39,39,0,0,0-1.34,3.79,19.89,19.89,0,0,1-1.5,3.71l-1.81,3.47c-.74,1.31-1.37,2.55-1.89,3.7a33.46,33.46,0,0,1-1.9,3.55l-.39.71A17.62,17.62,0,0,1,261.43,43a1.84,1.84,0,0,1-1.3.75,3.76,3.76,0,0,1-.95-.16,5.1,5.1,0,0,0-1.42-.16,5.1,5.1,0,0,1-.55,0,1.7,1.7,0,0,0-.63,0l-.87.24-.87.63-.24,1V46a4.26,4.26,0,0,0,.36,1.9,3.06,3.06,0,0,0,.87,1.1,3.78,3.78,0,0,0,1.1.59c.4.13.72.22,1,.28l2.68-.16a7.29,7.29,0,0,0,3.15-1.3A12,12,0,0,0,266.16,46a23.82,23.82,0,0,0,2-3.11c.63-1.16,1.29-2.34,2-3.55.42-.9.87-2,1.34-3.2s1-2.45,1.5-3.66v2.12c0,1,0,1.58,0,1.9s0,.52,0,.63l.16,2.29.24,1.81c.1.9.25,1.85.43,2.88a11.23,11.23,0,0,0,.95,2.92,8.79,8.79,0,0,0,1.73,2.44,5.62,5.62,0,0,0,2.8,1.46h.71A4.63,4.63,0,0,0,283,49.61a19.68,19.68,0,0,0,2.05-2.21,23.2,23.2,0,0,0,1.58-2.28q.71-1.18,1.38-2.37c.44-.79.93-1.6,1.46-2.45a16.75,16.75,0,0,0,1.85-3.78,8.9,8.9,0,0,1,2.17-3.47v.31c.1.9.17,1.79.2,2.68s.09,1.79.19,2.69l.48,3.62a5.35,5.35,0,0,0,.08.87c.05.37.1.73.15,1.07s.11.66.16.94a1.13,1.13,0,0,0,.24.6,3,3,0,0,0,.39.82c.21.35.45.7.71,1.07a9.16,9.16,0,0,0,.71.9c.21.24.32.33.32.28A9.5,9.5,0,0,0,299,50a4.68,4.68,0,0,0,2,.44h.79a2.24,2.24,0,0,0,1.07-.44,7.24,7.24,0,0,0,.74-.51l.64-1.65a3.3,3.3,0,0,0-.64-1.9A6.77,6.77,0,0,0,302.6,45.16Z"></path> <path class="cls-1" d="M337,45a4.14,4.14,0,0,0,1-.28,2.09,2.09,0,0,0,.83-.63,2.7,2.7,0,0,0,.51-1.22,5.44,5.44,0,0,0-.71-1.22c-.26-.35-.55-.7-.86-1.07a10.88,10.88,0,0,1-1.7-4.38,35.77,35.77,0,0,1-.51-6.5c0-1.27.09-2.78.27-4.54a72.19,72.19,0,0,0,.28-7.29,4.7,4.7,0,0,0-1.26-1.27,2.72,2.72,0,0,0-1.5-.63.32.32,0,0,1-.16,0,.42.42,0,0,0-.16,0,5.27,5.27,0,0,0-2.8.56,2.42,2.42,0,0,0-1.06,1.38,5.72,5.72,0,0,0-.2,1.85,6,6,0,0,1-.27,2.05q-.79,2.44-2.05,5.6a64.76,64.76,0,0,1-2.77,6,34.68,34.68,0,0,1-3,4.85c-1,1.35-2,2.07-2.8,2.17-.11-1.1-.24-2.72-.4-4.85s-.23-4.45-.23-7a15.47,15.47,0,0,1,.19-2.36,24.61,24.61,0,0,0,.2-3.55,9.94,9.94,0,0,1,.24-2.33,9.61,9.61,0,0,0,.23-2.25,2.52,2.52,0,0,0-1.26-2.28,6.22,6.22,0,0,0-2.52-.95c-.27.05-.49.11-.67.16l-.51.15a5,5,0,0,0-.83.36,1.15,1.15,0,0,0-.44.35,16.74,16.74,0,0,0-.79,3.87c-.1,1.31-.15,2.68-.15,4.1v5a16.43,16.43,0,0,1-.16,2.21c0,3.15.09,5.81.28,8a20.74,20.74,0,0,0,1,5.29,5.76,5.76,0,0,0,2.13,3,6.62,6.62,0,0,0,3.67.9,6.14,6.14,0,0,0,4-1.53,17.24,17.24,0,0,0,3.27-3.63,33.94,33.94,0,0,0,2.49-4.3c.71-1.47,1.27-2.66,1.69-3.55l.32-.63c.16,1.26.34,2.48.55,3.67a13.12,13.12,0,0,0,1,3.23,7.94,7.94,0,0,0,1.73,2.48,5.74,5.74,0,0,0,2.8,1.42A8.76,8.76,0,0,1,337,45Z"></path> <path class="cls-1" d="M369.37,44.48c.26-.78.49-1.57.71-2.36s.43-1.59.67-2.41a16.83,16.83,0,0,1,1-2.56c.37-.84.82-1.77,1.34-2.8l1.62-3.16c.55-1.07,1.1-2.13,1.66-3.15l1.53-2.88a13.3,13.3,0,0,1,.52,2.6c.07.85.15,1.69.23,2.53s.17,1.69.28,2.56a10.53,10.53,0,0,0,.63,2.56,14.6,14.6,0,0,1,.39,2.72,31.24,31.24,0,0,0,.6,3.95,11.54,11.54,0,0,0,1.34,3.55,2.84,2.84,0,0,0,2.56,1.54,3.72,3.72,0,0,0,2.56-1,3.5,3.5,0,0,0,1.07-2.76,7.93,7.93,0,0,0-.75-3.31,10.56,10.56,0,0,1-.91-3.24c-.26-2.1-.58-4.08-.94-5.95a30.62,30.62,0,0,1-.56-6V23.82a14,14,0,0,0-.31-3.39,4.17,4.17,0,0,0-.87-1.78,3.33,3.33,0,0,0-1.34-.86,16.91,16.91,0,0,1-1.74-.75,7.36,7.36,0,0,0-3.74,1.26,13,13,0,0,0-2.84,2.64,19.45,19.45,0,0,0-2.13,3.31c-.61,1.19-1.15,2.28-1.62,3.28-.16.31-.37.75-.63,1.3s-.53,1.16-.79,1.81l-.75,1.9c-.23.6-.41,1.09-.51,1.45q-.56-2.28-1.14-5.12c-.4-1.9-.83-3.6-1.31-5.13a24.88,24.88,0,0,1-.51-2.72,10.85,10.85,0,0,0-.67-2.64,4.79,4.79,0,0,0-1.42-2,4,4,0,0,0-2.68-.79,3.86,3.86,0,0,0-2.84,1.3c-.84.87-1.58,1.69-2.21,2.48a19.59,19.59,0,0,0-1.42,2.05q-.71,1.18-1.38,2.49c-.45.87-.87,1.72-1.26,2.56s-.75,1.61-1.06,2.29a6.5,6.5,0,0,1-.16-1.26,19,19,0,0,1,.12-2.05c.07-.74.11-1.4.11-2s0-1.35-.07-2.17a9.22,9.22,0,0,0-.44-2.28,4.21,4.21,0,0,0-1.14-1.78,3.21,3.21,0,0,0-2.21-.71,3.16,3.16,0,0,0-2.05.79,2.41,2.41,0,0,0-.95,1.9,4.81,4.81,0,0,0,.28,1.65,5.11,5.11,0,0,1,.27,1.66c0,.42,0,.64.08.67s.11.27.16.75.11,1.35.16,2.64S344,30,344,33c0,.16,0,.55-.08,1.18s-.11,1.3-.16,2-.11,1.38-.16,2-.08,1-.08,1.19q0,.87,0,1.65a12,12,0,0,1-.2,1.58,4.44,4.44,0,0,0,.23,1.34,6.32,6.32,0,0,0,.63,1.34,4,4,0,0,0,1,1.07,2,2,0,0,0,1.22.43,4,4,0,0,0,3-1,6.18,6.18,0,0,0,1.34-2.53c.29-1,.55-2.15.79-3.39a12.3,12.3,0,0,1,1.38-3.67c.26-.63.55-1.48.87-2.56s.69-2.18,1.14-3.31.95-2.22,1.5-3.28a7.51,7.51,0,0,1,1.93-2.44,10.93,10.93,0,0,1,1.15,2.44c.34,1,.65,2.07.94,3.2s.53,2.27.71,3.43.33,2.23.44,3.23.3,2,.43,3.24a23.68,23.68,0,0,0,.63,3.47,8,8,0,0,0,1.26,2.76,2.77,2.77,0,0,0,2.33,1.1,4.57,4.57,0,0,0,2.05-.47A18.29,18.29,0,0,0,369.37,44.48Z"></path> <path class="cls-1" d="M351,11.75a6.15,6.15,0,0,0,.83-.08,8.43,8.43,0,0,0,1.26-.27,13.25,13.25,0,0,0,1.26-.44,1.36,1.36,0,0,0,.75-.55l.63-.31A30,30,0,0,1,362,7.77a25.39,25.39,0,0,1,6.31-.91,23.55,23.55,0,0,1,3.59.32q2,.31,4,.75c1.34.29,2.59.6,3.75.94s2.08.65,2.76.91a3.37,3.37,0,0,0,1.54-.51,1.45,1.45,0,0,0,.51-1,4.44,4.44,0,0,0-.67-2,3.15,3.15,0,0,0-1.07-1.18l-.94-.55a25.93,25.93,0,0,0-5.64-2.09,25.6,25.6,0,0,0-6.59-.91q-8.83,0-13.76,1.85T349.25,8.6a.83.83,0,0,0-.08.47,3.37,3.37,0,0,0,.56,1.77A1.51,1.51,0,0,0,351,11.75Z"></path> <path class="cls-1" d="M414.88,39.67a2.31,2.31,0,0,0-.87-.75l-.87-.35L409.55,41a7,7,0,0,1-4.06,1.11,6.53,6.53,0,0,1-1.26-.24,5.36,5.36,0,0,1-2-1.06,7.92,7.92,0,0,1-1.89-2.49,10.53,10.53,0,0,1-.94-4.57v-.44a3.71,3.71,0,0,1,.07-.67c.69.21,1.29.37,1.82.48a7,7,0,0,0,1.81.08,11.32,11.32,0,0,0,4.22-.91,9.37,9.37,0,0,0,5.05-5.21,9.4,9.4,0,0,0,.67-3.51,7.42,7.42,0,0,0-.51-2.72A6.73,6.73,0,0,0,411,18.54a7.61,7.61,0,0,0-2.56-1.66,9.47,9.47,0,0,0-3.59-.63,9,9,0,0,0-5.13,1.46A12.66,12.66,0,0,0,396,21.53a17.93,17.93,0,0,0-2.24,5.33,23.81,23.81,0,0,0-.75,5.87c.05,1.26.14,2.46.27,3.59a13.94,13.94,0,0,0,.79,3.27,12,12,0,0,0,1.66,3,14.46,14.46,0,0,0,3,2.84,18.55,18.55,0,0,0,3.11,1.18,11.27,11.27,0,0,0,3.12.56,16.67,16.67,0,0,0,4.61-.52,10.89,10.89,0,0,0,3.83-2.24,6.92,6.92,0,0,0,1.14-1.31,3.62,3.62,0,0,0,.59-1.85,3.39,3.39,0,0,0-.08-.83A7,7,0,0,1,414.88,39.67Zm-14.52-14A11.45,11.45,0,0,1,401,23.9a4.45,4.45,0,0,1,.75-1.11,10,10,0,0,0,.71-.78,1.65,1.65,0,0,1,1.14-.79,7.19,7.19,0,0,1,1.54-.16,2,2,0,0,1,1.74,1,3.62,3.62,0,0,1,.63,2,4.24,4.24,0,0,1-1.46,3.23,5.91,5.91,0,0,1-4.14,1.34c-.26,0-.62,0-1.07,0a4.68,4.68,0,0,1-1-.12A14.67,14.67,0,0,1,400.36,25.67Z"></path> <path class="cls-1" d="M68.9,101.85c0-1,.1-1.82.16-2.45s.1-1.18.15-1.65.09-1,.12-1.42,0-1,0-1.66c0-.89-.05-2.33-.16-4.3a29.69,29.69,0,0,0-1-6.19.53.53,0,0,0,0-.16.29.29,0,0,1,0-.16A5.93,5.93,0,0,0,67.75,82,16.93,16.93,0,0,0,67,80.08a10.31,10.31,0,0,0-.82-1.5c-.29-.42-.46-.63-.52-.63v-.47a10.62,10.62,0,0,0-4.1-2.69,14.21,14.21,0,0,0-4.49-.71,12.22,12.22,0,0,0-2.92.4A20.5,20.5,0,0,0,51,75.54a20.79,20.79,0,0,0-2.88,1.54A13.19,13.19,0,0,0,46,78.82c-.06.1-.2.31-.44.63s-.5.67-.79,1.06-.54.77-.75,1.11a2.45,2.45,0,0,0-.31.59,3.78,3.78,0,0,0,.43,1.73,1.57,1.57,0,0,0,1.54.87,3,3,0,0,0,2.17-.91q.9-.9,2.25-2c.57-.47,1.05-.84,1.42-1.1s.68-.47.94-.63a3.37,3.37,0,0,1,.83-.36l1.07-.27c.73-.16,1.32-.27,1.77-.32a10.37,10.37,0,0,1,1.07-.08,2.89,2.89,0,0,1,2.28,1,7.62,7.62,0,0,1,1.42,2.6,21.3,21.3,0,0,1,.87,3.67c.21,1.37.39,2.73.55,4.1V92.7c0,.63,0,1.29,0,2s-.08,1.3-.15,1.85a9.56,9.56,0,0,1-.28,1.34c-.11.35-.24.52-.4.52h-.47c-.42,0-.77,0-1.06,0a9,9,0,0,0-.91,0,10.67,10.67,0,0,0-5.21,1.22,14.14,14.14,0,0,0-3.82,3.08,16.86,16.86,0,0,0-2.64,4.06,36.08,36.08,0,0,0-1.66,4.14,24.62,24.62,0,0,0-.87,3.31c-.16.92-.23,1.44-.23,1.54v.63c0,.74,0,1.55.11,2.45a10.73,10.73,0,0,0,.52,2.52,10.1,10.1,0,0,0,3.35,5,6.91,6.91,0,0,0,3.9,1.38,8.62,8.62,0,0,0,4.85-1.42A18.61,18.61,0,0,0,61,123.1a17.07,17.07,0,0,0,2.37-3.19,18.93,18.93,0,0,0,.9-1.74,46.94,46.94,0,0,0,3.12-8A41.57,41.57,0,0,0,68.9,101.85Zm-8.17,5.05a4.12,4.12,0,0,1-.35,1.89L59.75,111c-.32,1.15-.65,2.3-1,3.43a16.7,16.7,0,0,1-1.38,3.27,5.45,5.45,0,0,1-.79,1.34,19.73,19.73,0,0,1-1.42,1.74,13.59,13.59,0,0,1-1.57,1.5,2.34,2.34,0,0,1-1.19.63q-.15,0-.39-.36c-.16-.23-.33-.5-.51-.79s-.35-.55-.48-.79a2.82,2.82,0,0,0-.27-.43,21,21,0,0,1-.24-3,15.76,15.76,0,0,1,.36-3.43,32.18,32.18,0,0,1,1.06-3.66c.42-.64.81-1.28,1.18-1.94a18,18,0,0,1,1.3-2,10.14,10.14,0,0,1,1.78-1.81,8.4,8.4,0,0,1,2.52-1.38,6.43,6.43,0,0,1,1.62.19c.5.14.75.57.75,1.3A5.34,5.34,0,0,0,60.73,106.9Z"></path> <path class="cls-1" d="M96.46,119.08c-.39-1-.85-2.3-1.38-3.82s-1.1-3.47-1.73-5.84v-.71a7.94,7.94,0,0,0-.2-1.74c-.13-.57-.27-1.2-.43-1.89l-.55-2.37c-.21-.89-.4-1.94-.56-3.15a3.11,3.11,0,0,0-.94-2.21,3,3,0,0,0-1.9-.63,5.32,5.32,0,0,0-2.36.63,8.45,8.45,0,0,0-2.21,1.58,8.33,8.33,0,0,0-.47,1.89,10.74,10.74,0,0,1-.32,1.66,14.44,14.44,0,0,0-1.38,3q-.59,1.72-1.7,4.49c-.63,1.63-1.19,3-1.69,4.18A28.39,28.39,0,0,1,77.26,117l-1.18,2.21-.4.71c-.26.47-.55,1-.87,1.54A11.05,11.05,0,0,1,73.75,123a6.53,6.53,0,0,1-1.3,1.18,2.73,2.73,0,0,1-1.5.47,1.55,1.55,0,0,1-.87-.35,2.47,2.47,0,0,0-1.5-.36,3.17,3.17,0,0,0-.86.08l-.4.08-.79.79-.23,1v.71c0,1.53.26,2.51.78,3a3.57,3.57,0,0,0,1.66.83l2.68-.16a10.66,10.66,0,0,0,4.14-1.38,13.38,13.38,0,0,0,3.12-2.56,20.16,20.16,0,0,0,2.4-3.31c.71-1.21,1.41-2.42,2.09-3.63a19.73,19.73,0,0,0,1.62-4.42,51.65,51.65,0,0,1,1.62-5.36c.42,1.63.75,3,1,4.1s.49,2.14.75,3.11.58,2,1,3,.87,2.28,1.5,3.75a5,5,0,0,0,.24,1.42,7.87,7.87,0,0,0,.67,1.58,5.1,5.1,0,0,0,1,1.3,1.81,1.81,0,0,0,1.26.51l.48,0a3.9,3.9,0,0,0,.86-.2,7.6,7.6,0,0,0,1-.43,3.43,3.43,0,0,0,1-.83,11.36,11.36,0,0,0,.43-1.3c.08-.34.14-.62.2-.83V124a7.36,7.36,0,0,0-.36-2.29C97.17,121,96.86,120.11,96.46,119.08Z"></path> <path class="cls-1" d="M131.09,124.09a15.29,15.29,0,0,1-1-1.38,6.47,6.47,0,0,1-.71-1.54q-.63-1.65-1.26-3.78a14.26,14.26,0,0,1-.63-4c0-1.36,0-2.4-.08-3.11s-.08-1.67-.08-2.88c0-.89,0-1.78.12-2.64s.17-1.7.28-2.49a16.62,16.62,0,0,1,.63-2.28c.26-.74.51-1.46.75-2.17s.44-1.44.63-2.17a10,10,0,0,0,.28-2.37,3.37,3.37,0,0,0-.12-.79,3.14,3.14,0,0,1-.12-.63.89.89,0,0,1-.47-.24,7.47,7.47,0,0,1-.68-.55c-.23-.21-.46-.39-.67-.55a1.17,1.17,0,0,0-.39-.24h-2.29a1.86,1.86,0,0,0-1.54.56,4,4,0,0,0-.67,1.26c-.15.47-.3.94-.43,1.42a1.6,1.6,0,0,1-.75,1,3.77,3.77,0,0,1-.67-.12c-.34-.07-.71-.17-1.1-.27s-.78-.2-1.15-.28a4.49,4.49,0,0,0-.71-.12,9.14,9.14,0,0,0-2.52.36c-.84.24-1.68.51-2.53.83-1,.63-2.09,1.3-3.11,2a16,16,0,0,0-2.76,2.4,11.45,11.45,0,0,0-2,3,9.28,9.28,0,0,0-.75,3.87,7.46,7.46,0,0,0,1.89,5.32,10.62,10.62,0,0,0,5,2.88,5.51,5.51,0,0,0,1.89.31,1.73,1.73,0,0,0,.32,0,1.12,1.12,0,0,1,.31,0,6.63,6.63,0,0,1-1,1.5,21.75,21.75,0,0,0-1.42,1.82,14.22,14.22,0,0,1-1.15,1.42c-.34.37-.77.89-1.3,1.58a26.68,26.68,0,0,1-2.2,2.48,20.83,20.83,0,0,1-2.37,1.93l-1.58.71a2.49,2.49,0,0,0-1,.24,4.53,4.53,0,0,0-1,.63,4.87,4.87,0,0,0-.83.87,1.53,1.53,0,0,0-.35.94,2.19,2.19,0,0,0,.23.75,2.23,2.23,0,0,1,.24.67,5.28,5.28,0,0,0,2,1.38,5.88,5.88,0,0,0,2.25.67,10,10,0,0,0,1.73-.15,3.62,3.62,0,0,0,1.5-.63,8.26,8.26,0,0,0,2.61-1.66,22.56,22.56,0,0,0,2.12-2.29c.64-.79,1.17-1.51,1.62-2.17a7.35,7.35,0,0,1,1.15-1.38l.23-.39a37.1,37.1,0,0,0,2-3.24,25.82,25.82,0,0,1,1.66-2.6c.26-.52.6-1.17,1-1.93a5,5,0,0,1,1.26-1.62,3.16,3.16,0,0,1,.31.91c.11.45.21.92.32,1.42s.18,1,.23,1.46a8.49,8.49,0,0,1,.08.94c.11,1.06.25,2.17.44,3.36a10.64,10.64,0,0,0,1.1,3.35,7.09,7.09,0,0,0,2.33,2.6,7.19,7.19,0,0,0,4.1,1,1.34,1.34,0,0,0,1-.36A2.61,2.61,0,0,0,132,128a4.06,4.06,0,0,0,.27-1,5.26,5.26,0,0,0,.08-.91,1.87,1.87,0,0,0-.35-.87C131.72,124.91,131.43,124.51,131.09,124.09Zm-10.41-20.43c-.19.74-.41,1.46-.67,2.17a15.25,15.25,0,0,1-1,2,15.72,15.72,0,0,1-1,1.62,6.07,6.07,0,0,1-2.61.55,9.51,9.51,0,0,1-2.44-.67,3.92,3.92,0,0,1-1.66-2.25,4.38,4.38,0,0,1-.23-1.65,7.64,7.64,0,0,1,.07-1,3.1,3.1,0,0,1,.48-1.18,13.65,13.65,0,0,1,2.36-2.65,7.84,7.84,0,0,1,3.87-1.45,3.13,3.13,0,0,1,.67.11l.91.28c.31.11.59.21.82.32a1.73,1.73,0,0,1,.44.23,4.21,4.21,0,0,1,.24,1.5A8.67,8.67,0,0,1,120.68,103.66Z"></path> <path class="cls-1" d="M183.86,115q-.36-2.68-.87-5.28a22.77,22.77,0,0,0-1.54-4.9,11,11,0,0,1-.75-2.16c-.18-.77-.39-1.5-.63-2.21a6.4,6.4,0,0,0-1-1.93,3.79,3.79,0,0,0-2-1.27A4.92,4.92,0,0,0,174,98.46a15.42,15.42,0,0,0-2.76,2.87,25.85,25.85,0,0,0-2.21,3.55,30.85,30.85,0,0,0-1.42,3.12l-.16.47c-.42,1.06-.85,2.16-1.3,3.32a8,8,0,0,1-1.78,2.83v-.39c0-1.26,0-2.57.08-3.94s.08-3,.08-5a6.45,6.45,0,0,0-.2-1.66,6.84,6.84,0,0,1-.19-1.65c0-.43,0-1-.08-1.58a7.83,7.83,0,0,0-.36-1.82,3.63,3.63,0,0,0-.86-1.46,2.22,2.22,0,0,0-1.62-.59c-.26,0-.55,0-.87,0s-.63,0-.94,0a2.34,2.34,0,0,0-1.23,1.3,5.24,5.24,0,0,0-.35,1.86c0,.89,0,1.8.08,2.72s.08,1.83.08,2.72c0,3.15,0,6.15,0,9s0,5.92,0,9.23a2.26,2.26,0,0,0,1.14,1.89,3.62,3.62,0,0,0,1.93.79,9.87,9.87,0,0,0,1.5-.12,4,4,0,0,0,1.66-.71,9.2,9.2,0,0,0,1.89-1.85,24.53,24.53,0,0,0,2.29-3.55,26.34,26.34,0,0,0,1.58-3.27l1.3-3.32c.44-1.13.94-2.31,1.5-3.55a31.61,31.61,0,0,1,2.17-4,6.78,6.78,0,0,1,1.22,2.45,32.11,32.11,0,0,1,.75,3.23c.21,1.16.39,2.3.55,3.43a22.19,22.19,0,0,0,.63,3,17.64,17.64,0,0,1,.51,2.76,20.46,20.46,0,0,0,.63,3.19,7.9,7.9,0,0,0,1.23,2.61,2.57,2.57,0,0,0,2.2,1.06,5.1,5.1,0,0,0,2.17-.59,2.26,2.26,0,0,0,1.38-1.85,22.75,22.75,0,0,1-1.42-4.82C184.37,118.57,184.09,116.81,183.86,115Z"></path> <path class="cls-1" d="M213.79,105.24c-.32-.63-.63-1.29-.95-2a4.76,4.76,0,0,0-1.34-1.74,9.78,9.78,0,0,0-2.21-1.42c-.79-.36-1.59-.71-2.4-1l-2.41-1A13.43,13.43,0,0,1,202.19,97a2.5,2.5,0,0,0-1.42-.48,6.05,6.05,0,0,0-3.39,1.11,15.8,15.8,0,0,0-3,2.56,17.26,17.26,0,0,0-2.16,3,11.82,11.82,0,0,0-1.11,2.4c-.31,1.37-.67,2.86-1.06,4.46a17.52,17.52,0,0,0-.59,4.14,11.74,11.74,0,0,0,1.42,6,10.64,10.64,0,0,0,4,3.94c.79.47,1.54,1,2.25,1.46a4,4,0,0,0,2.4.75h.47a8.84,8.84,0,0,1,.91,0c.29,0,.57,0,.83,0a5.4,5.4,0,0,0,2.8-.83,15.37,15.37,0,0,0,2.64-2,21,21,0,0,0,2.29-2.53c.68-.89,1.23-1.68,1.66-2.36a28.85,28.85,0,0,0,2.16-4.06,12.18,12.18,0,0,0,1-4.54v-1.5c0-.58,0-1.14-.08-1.69A4.55,4.55,0,0,0,213.79,105.24Zm-6.47,2.6c-.11,1-.28,2.16-.51,3.32a21.82,21.82,0,0,1-.95,3.31,12.92,12.92,0,0,1-1.54,2.92,7.7,7.7,0,0,1-2.21,2.13c-.57.26-1.1.48-1.57.67a4.44,4.44,0,0,1-1.58.27,1.84,1.84,0,0,1-1.54-.79,5.92,5.92,0,0,1-.91-1.81,11.66,11.66,0,0,1-.43-2,12.43,12.43,0,0,1-.12-1.27,20.25,20.25,0,0,1,.36-3.5,15.59,15.59,0,0,1,1.14-3.79,11.65,11.65,0,0,1,1.89-3,3.51,3.51,0,0,1,2.69-1.22,6.76,6.76,0,0,1,3.62,1,3.61,3.61,0,0,1,1.66,3.32Z"></path> <path class="cls-1" d="M241.87,84.18a.53.53,0,0,0,0-.16.29.29,0,0,1,0-.16,5.93,5.93,0,0,0-.36-1.85,16.93,16.93,0,0,0-.75-1.93,10.31,10.31,0,0,0-.82-1.5c-.29-.42-.46-.63-.52-.63v-.47a10.62,10.62,0,0,0-4.1-2.69,14.21,14.21,0,0,0-4.49-.71,12.22,12.22,0,0,0-2.92.4,20.5,20.5,0,0,0-3.12,1.06,20.79,20.79,0,0,0-2.88,1.54,13.73,13.73,0,0,0-2.21,1.74,5.43,5.43,0,0,1-.43.63c-.24.31-.5.67-.79,1.06s-.54.77-.75,1.11a2.45,2.45,0,0,0-.31.59,3.78,3.78,0,0,0,.43,1.73,1.57,1.57,0,0,0,1.54.87,3,3,0,0,0,2.17-.91q.9-.9,2.25-2c.57-.47,1.05-.84,1.42-1.1s.68-.47.94-.63a3.37,3.37,0,0,1,.83-.36l1.07-.27c.73-.16,1.32-.27,1.77-.32a10.37,10.37,0,0,1,1.07-.08,2.89,2.89,0,0,1,2.28,1,7.62,7.62,0,0,1,1.42,2.6,21.3,21.3,0,0,1,.87,3.67c.21,1.37.39,2.73.55,4.1V92.7c0,.63,0,1.29,0,2s-.08,1.3-.16,1.85a8.45,8.45,0,0,1-.27,1.34c-.11.35-.24.52-.4.52h-.47a10.54,10.54,0,0,1-1.06,0,9,9,0,0,0-.91,0,10.67,10.67,0,0,0-5.21,1.22,14.14,14.14,0,0,0-3.82,3.08,16.86,16.86,0,0,0-2.64,4.06,36.08,36.08,0,0,0-1.66,4.14,24.62,24.62,0,0,0-.87,3.31c-.16.92-.23,1.44-.23,1.54v.63c0,.74,0,1.55.11,2.45a10.73,10.73,0,0,0,.52,2.52,10.1,10.1,0,0,0,3.35,5,6.91,6.91,0,0,0,3.9,1.38,8.62,8.62,0,0,0,4.85-1.42,18.9,18.9,0,0,0,3.71-3.12,17.53,17.53,0,0,0,2.37-3.19,18.93,18.93,0,0,0,.9-1.74,46.94,46.94,0,0,0,3.12-8,41.57,41.57,0,0,0,1.54-8.32c0-1,.1-1.82.16-2.45s.1-1.18.15-1.65.09-1,.12-1.42,0-1,0-1.66c0-.89-.05-2.33-.16-4.3A29.69,29.69,0,0,0,241.87,84.18Zm-7.46,22.72a4.12,4.12,0,0,1-.35,1.89l-.63,2.21c-.32,1.15-.65,2.3-1,3.43a16.7,16.7,0,0,1-1.38,3.27,5.45,5.45,0,0,1-.79,1.34,19.73,19.73,0,0,1-1.42,1.74,13.59,13.59,0,0,1-1.57,1.5,2.34,2.34,0,0,1-1.19.63q-.15,0-.39-.36c-.16-.23-.33-.5-.51-.79s-.35-.55-.48-.79a2.82,2.82,0,0,0-.27-.43,21,21,0,0,1-.24-3,16.41,16.41,0,0,1,.35-3.43,34.64,34.64,0,0,1,1.07-3.66c.42-.64.81-1.28,1.18-1.94a18,18,0,0,1,1.3-2,10.14,10.14,0,0,1,1.78-1.81,8.4,8.4,0,0,1,2.52-1.38,6.43,6.43,0,0,1,1.62.19c.5.14.75.57.75,1.3A5.15,5.15,0,0,0,234.41,106.9Z"></path> <path class="cls-1" d="M271.84,104.21a16.09,16.09,0,0,0-2.25-3.15,10.4,10.4,0,0,0-2.8-2.21.16.16,0,0,1-.12,0,.19.19,0,0,0-.12,0l-.23-.16a11.51,11.51,0,0,0-2.21-1,11.07,11.07,0,0,0-3.23-.36h-.56a4.91,4.91,0,0,0-1.54.32l-1.53.55A8.71,8.71,0,0,0,256,95.62c-.5-.69-1.48-1-2.95-1s-2.25.24-2.65.71a3.28,3.28,0,0,0-.59,2.13q0,3.31.28,6.43t.27,6.43q0,4,.08,7.37t.08,6.67q0,4.48-.08,8.63t-.08,8.25v2.68c0,.89,0,1.78.08,2.68-.05.37-.09.72-.12,1.06s0,.65,0,.91a2.93,2.93,0,0,0,1.14,2.25,3.55,3.55,0,0,0,2.33,1,3.2,3.2,0,0,0,2.05-.64,4.75,4.75,0,0,0,1.26-1.57,7.71,7.71,0,0,0,.67-2,9.56,9.56,0,0,0,.2-1.73,26.11,26.11,0,0,0-.28-3.59,30.49,30.49,0,0,1-.28-4.22V126a2.13,2.13,0,0,1,.16-.9,2.21,2.21,0,0,0,.79.15h.71a15.06,15.06,0,0,0,6.59-1.34,14.27,14.27,0,0,0,4.61-3.39A14,14,0,0,0,273,116a13,13,0,0,0,.91-4.57,13.23,13.23,0,0,0-.55-3.63A18.52,18.52,0,0,0,271.84,104.21Zm-7.73,13.57-1.58,1a9,9,0,0,1-2.25.82,10.47,10.47,0,0,1-2.17.2c-.42,0-.68-.47-.78-1.42a27.6,27.6,0,0,1-.16-3.15v-2.69c0-.52,0-1.45-.12-2.8s-.12-2.51-.12-3.51a3.33,3.33,0,0,1,.16-1.49.6.6,0,0,0,.2-.16.51.51,0,0,1,.11-.16,8.78,8.78,0,0,1,.83-.59,5,5,0,0,1,1.15-.59l1-.4a6.28,6.28,0,0,1,2.64,1,7.72,7.72,0,0,1,2,2,9.39,9.39,0,0,1,1.26,2.56,9.29,9.29,0,0,1,.43,2.8A9.07,9.07,0,0,1,264.11,117.78Z"></path> <path class="cls-1" d="M302.05,105.24c-.32-.63-.63-1.29-.95-2a4.76,4.76,0,0,0-1.34-1.74,9.78,9.78,0,0,0-2.21-1.42c-.79-.36-1.59-.71-2.4-1l-2.41-1A13.43,13.43,0,0,1,290.45,97a2.5,2.5,0,0,0-1.42-.48,6.05,6.05,0,0,0-3.39,1.11,15.8,15.8,0,0,0-3,2.56,17.26,17.26,0,0,0-2.16,3,11.82,11.82,0,0,0-1.11,2.4c-.31,1.37-.67,2.86-1.06,4.46a17.6,17.6,0,0,0-.6,4.14,11.84,11.84,0,0,0,1.42,6,10.74,10.74,0,0,0,4,3.94c.79.47,1.54,1,2.25,1.46a4,4,0,0,0,2.4.75h.47a8.84,8.84,0,0,1,.91,0c.29,0,.56,0,.83,0a5.4,5.4,0,0,0,2.8-.83,15.37,15.37,0,0,0,2.64-2,21,21,0,0,0,2.29-2.53c.68-.89,1.23-1.68,1.66-2.36a28.85,28.85,0,0,0,2.16-4.06,12.18,12.18,0,0,0,1-4.54v-1.5c0-.58,0-1.14-.08-1.69A4.55,4.55,0,0,0,302.05,105.24Zm-6.47,2.6c-.11,1-.28,2.16-.51,3.32a21.82,21.82,0,0,1-.95,3.31,12.92,12.92,0,0,1-1.54,2.92,7.83,7.83,0,0,1-2.21,2.13c-.58.26-1.1.48-1.57.67a4.44,4.44,0,0,1-1.58.27,1.84,1.84,0,0,1-1.54-.79,5.92,5.92,0,0,1-.91-1.81,11.66,11.66,0,0,1-.43-2,12.43,12.43,0,0,1-.12-1.27,20.25,20.25,0,0,1,.36-3.5,15.59,15.59,0,0,1,1.14-3.79,11.65,11.65,0,0,1,1.89-3,3.51,3.51,0,0,1,2.69-1.22,6.76,6.76,0,0,1,3.62,1,3.61,3.61,0,0,1,1.66,3.32Z"></path> <path class="cls-1" d="M330,75.19c-.05-.11-.2-.16-.44-.16s-.38-.08-.43-.24h-1.42a6.2,6.2,0,0,0-2.48.52,22.22,22.22,0,0,1-2.65.9c-.21.06-.68.23-1.42.52s-1.53.61-2.4,1l-2.49,1.07c-.78.34-1.34.59-1.65.75a11.84,11.84,0,0,1-2.09,1,17.15,17.15,0,0,0-2,.87A4.68,4.68,0,0,0,309,82.6a3,3,0,0,0-.59,2,9.08,9.08,0,0,0,.67,3.08,20.1,20.1,0,0,0,3.19,5,34.87,34.87,0,0,0,2.49,3.23A15.36,15.36,0,0,1,317,99a9.68,9.68,0,0,1-1.49,1,15.59,15.59,0,0,0-2,1.46,18.91,18.91,0,0,0-2.33,2.33,18.5,18.5,0,0,0-2.33,3.55,14.51,14.51,0,0,0-2.21,7.25l-.23,3,.63,2.92a7.44,7.44,0,0,0,2.48,3.94,13.36,13.36,0,0,0,3.63,2.13,14.73,14.73,0,0,0,3.31.91,5,5,0,0,1,1.46.28H318a5.27,5.27,0,0,1,.55,0c.26,0,.63,0,1.11,0s1-.15,1.57-.28a6.47,6.47,0,0,0,1.19-.35c.1-.06.38-.18.82-.36a8.54,8.54,0,0,0,1.46-.79,11.9,11.9,0,0,0,1.54-1.18,3.2,3.2,0,0,0,1-1.54l1-2a7.69,7.69,0,0,0,.83-1.7,14.17,14.17,0,0,0,.59-2.09,21.33,21.33,0,0,0,.36-2.17,17.33,17.33,0,0,0,.12-1.93,22.24,22.24,0,0,0-1.27-7.57q-1.26-2.45-2.2-4c-.64-1-1.2-1.91-1.7-2.65s-1-1.39-1.46-2-1-1.23-1.5-2l-2.92-3.94q-1.5-2.3-2.13-3.12a2.59,2.59,0,0,1-.63-1.54c0-.31.29-.67.87-1.06a18.13,18.13,0,0,1,2-1.18c.76-.4,1.53-.77,2.29-1.11s1.35-.59,1.77-.75c.95-.31,1.9-.59,2.84-.83s1.78-.46,2.49-.67a16.15,16.15,0,0,0,1.73-.59c.45-.18.67-.35.67-.51.37,0,.65-.25.83-.75a3.52,3.52,0,0,0,.28-1.14,3.2,3.2,0,0,0-.59-1.82A3,3,0,0,0,330,75.19Zm-12,30.25a3.78,3.78,0,0,1,2.41-1.15,1.23,1.23,0,0,1,.74.36,4,4,0,0,1,.75.79c.21.29.4.55.56.79a1.48,1.48,0,0,1,.23.43c.16.42.29.8.4,1.14a11.89,11.89,0,0,1,.27,1.19c.08.44.16.94.24,1.49s.17,1.25.28,2.09c0,.58,0,1,0,1.35s0,.55,0,.7v.4a6.64,6.64,0,0,1-1.54,4.22,8,8,0,0,1-3.67,2.41,5.22,5.22,0,0,1-2.36-.52,6.78,6.78,0,0,1-1.82-1.3,5.16,5.16,0,0,1-1.18-1.81,5.57,5.57,0,0,1-.4-2,11.11,11.11,0,0,1,.79-4,18.61,18.61,0,0,1,1.94-3.74A14.43,14.43,0,0,1,317.94,105.44Z"></path> <path class="cls-1" d="M359.62,95.1l-.9-.51a1.65,1.65,0,0,0-.59-.24,2.89,2.89,0,0,0-2,.64,4.41,4.41,0,0,0-1.06,1.38,5.39,5.39,0,0,0-.47,1.46q-.12.7-.12.78l-.71,6.23c0,.16,0,.49-.08,1s-.08.83-.08,1a4.36,4.36,0,0,1-1.14.75c-.66.34-1.34.67-2.05,1s-1.37.59-2,.83a8.32,8.32,0,0,1-1,.36c-.58.26-1.36.56-2.33.9a7.52,7.52,0,0,1-2.09.52c-.21,0-.31-.06-.31-.16,0-.69.09-1.88.27-3.59s.28-4.41.28-8.09c-.05-.47-.09-.92-.12-1.34a4,4,0,0,0-.24-1.14,2.26,2.26,0,0,0-.75-1,4.79,4.79,0,0,0-1.57-.75,7.82,7.82,0,0,0-2,.2,2,2,0,0,0-1.06.67,2.58,2.58,0,0,0-.47,1.22,12.75,12.75,0,0,0-.12,1.94,4.43,4.43,0,0,0,.08.9,6.41,6.41,0,0,1,.08,1.07c0,1.73-.07,3.44-.2,5.12s-.3,3.37-.51,5a10.43,10.43,0,0,0-.2,1.82A8.51,8.51,0,0,1,336,115l-1,10.17a2.94,2.94,0,0,1,.15.87,4.1,4.1,0,0,1-.27,1.38,4.28,4.28,0,0,0-.28,1.54,5.38,5.38,0,0,0,1.78,2.13,4.82,4.82,0,0,0,2.72.71,1.75,1.75,0,0,0,1.34-.83,3.19,3.19,0,0,0,.71-1.46l.24-.94c.05-.27.09-.45.11-.56a1.84,1.84,0,0,0,0-.47V125c0-.69,0-1.46.08-2.33s.13-1.7.24-2.48.21-1.5.31-2.13a7.25,7.25,0,0,1,.32-1.35s.12-.13.36-.23.48-.21.74-.32l.68-.27c.18-.08.24-.12.19-.12a16.8,16.8,0,0,0,2.8-1,6.32,6.32,0,0,1,1.62-.59,3.41,3.41,0,0,0,.79-.24c.42-.15.87-.34,1.34-.55s.92-.39,1.34-.55a3,3,0,0,1,.87-.24c.26,0,.4.07.43.2a1.59,1.59,0,0,1,0,.36v6c0,.84,0,1.62,0,2.33s0,1.48,0,2.32c0,.43,0,.82,0,1.19s0,.73,0,1.1a7.81,7.81,0,0,0,.63,3,2.29,2.29,0,0,0,2.29,1.54,4.46,4.46,0,0,0,1.93-.36,3.74,3.74,0,0,0,1.18-.83,2.57,2.57,0,0,0,.59-.94,2.38,2.38,0,0,0,.16-.71l.16-.79c0-.16,0-.47,0-1s-.07-1-.12-1.54-.09-1.06-.12-1.53,0-.79,0-.95c-.05-1.63-.09-3-.12-4.1s-.05-2-.07-2.76,0-1.3,0-1.7v-2.64c0-.53,0-1.38.08-2.56s.13-2.12.23-2.8c.11-1.06.19-2.09.24-3.12s.13-2.09.24-3.19a9.42,9.42,0,0,0,.07-1.11V95.93l-.55-.31Z"></path> <path class="cls-1" d="M391.88,105.24c-.31-.63-.63-1.29-.94-2a5,5,0,0,0-1.34-1.74,10,10,0,0,0-2.21-1.42c-.79-.36-1.59-.71-2.41-1s-1.62-.63-2.4-1A13.07,13.07,0,0,1,380.29,97a2.52,2.52,0,0,0-1.42-.48,6,6,0,0,0-3.39,1.11,15.49,15.49,0,0,0-3,2.56,17.33,17.33,0,0,0-2.17,3,11.14,11.14,0,0,0-1.1,2.4c-.32,1.37-.67,2.86-1.07,4.46a18.06,18.06,0,0,0-.59,4.14,11.74,11.74,0,0,0,1.42,6,10.79,10.79,0,0,0,4,3.94c.79.47,1.54,1,2.25,1.46a4.08,4.08,0,0,0,2.41.75h.47a9,9,0,0,1,.91,0c.28,0,.56,0,.82,0a5.4,5.4,0,0,0,2.8-.83,15.83,15.83,0,0,0,2.65-2,20.12,20.12,0,0,0,2.28-2.53,27.56,27.56,0,0,0,1.66-2.36,30,30,0,0,0,2.17-4.06,12.37,12.37,0,0,0,1-4.54v-1.5c0-.58,0-1.14-.07-1.69A4.57,4.57,0,0,0,391.88,105.24Zm-6.46,2.6c-.11,1-.28,2.16-.52,3.32a21.81,21.81,0,0,1-.94,3.31,13.34,13.34,0,0,1-1.54,2.92,7.83,7.83,0,0,1-2.21,2.13c-.58.26-1.1.48-1.58.67a4.4,4.4,0,0,1-1.58.27,1.81,1.81,0,0,1-1.53-.79,5.7,5.7,0,0,1-.91-1.81,10.76,10.76,0,0,1-.43-2,12.43,12.43,0,0,1-.12-1.27,21.16,21.16,0,0,1,.35-3.5,16.05,16.05,0,0,1,1.15-3.79,11.14,11.14,0,0,1,1.89-3,3.49,3.49,0,0,1,2.68-1.22,6.82,6.82,0,0,1,3.63,1,3.63,3.63,0,0,1,1.66,3.32Z"></path> <path class="cls-1" d="M412.47,121.72h-1a4,4,0,0,1-2.84-1.34,7.7,7.7,0,0,1-1.85-1.54,12,12,0,0,1-1.77-2.52,17.58,17.58,0,0,1-1.31-3.11,11.25,11.25,0,0,1-.51-3.32,13.43,13.43,0,0,1,.16-2,4.32,4.32,0,0,1,.79-2,3.63,3.63,0,0,1,.79-1.11,14.92,14.92,0,0,1,1.26-1.1,10.49,10.49,0,0,1,2.13-1.26,4.5,4.5,0,0,1,1.62-.47,5.34,5.34,0,0,0,1.69-.48,1.92,1.92,0,0,0,1.18-.94,4,4,0,0,0,.48-1.11,4.21,4.21,0,0,0-1.19-2.33,5.38,5.38,0,0,0-2.52-.67,7.1,7.1,0,0,0-2.37.4c-.73.26-1.47.5-2.2.71l-3,1.34a9.86,9.86,0,0,0-2.45,2.33,15,15,0,0,0-1.73,3,18.25,18.25,0,0,0-1.07,3.39,17.13,17.13,0,0,0-.35,3.32,10.36,10.36,0,0,0,.08,1.22,12.16,12.16,0,0,0,.27,1.58,14.25,14.25,0,0,0,.48,1.61,3.88,3.88,0,0,0,.67,1.27,13.56,13.56,0,0,0,2.88,4.33,50.68,50.68,0,0,0,3.82,3.55,7.85,7.85,0,0,0,2.49,1.19c.81.21,1.66.44,2.56.71.58-.06,1.17-.12,1.77-.2a8.46,8.46,0,0,0,1.62-.36,2.59,2.59,0,0,0,1.15-.71,1.81,1.81,0,0,0,.43-1.26,2.26,2.26,0,0,0-.59-1.58A2,2,0,0,0,412.47,121.72Z"></path> <path class="cls-1" d="M462.63,116.91c-.26-2.1-.58-4.08-.94-6a30.62,30.62,0,0,1-.56-6v-1.18a14,14,0,0,0-.31-3.39,4.17,4.17,0,0,0-.87-1.78,3.33,3.33,0,0,0-1.34-.86,16.91,16.91,0,0,1-1.74-.75,7.42,7.42,0,0,0-3.74,1.26,13,13,0,0,0-2.84,2.64,19.45,19.45,0,0,0-2.13,3.31c-.61,1.19-1.15,2.28-1.62,3.28-.16.31-.37.75-.63,1.3s-.53,1.16-.79,1.81l-.75,1.9c-.23.6-.41,1.09-.51,1.45q-.56-2.28-1.14-5.12c-.4-1.9-.83-3.6-1.3-5.13a22.66,22.66,0,0,1-.52-2.72,10.85,10.85,0,0,0-.67-2.64,4.79,4.79,0,0,0-1.42-2,4,4,0,0,0-2.68-.79,3.86,3.86,0,0,0-2.84,1.3c-.84.87-1.58,1.69-2.21,2.48a19.59,19.59,0,0,0-1.42,2q-.71,1.18-1.38,2.49c-.45.87-.86,1.72-1.26,2.56s-.75,1.61-1.06,2.29a6.5,6.5,0,0,1-.16-1.26,19,19,0,0,1,.12-2,18.4,18.4,0,0,0,.11-2c0-.63,0-1.35-.07-2.17a9.22,9.22,0,0,0-.44-2.28,4.11,4.11,0,0,0-1.14-1.78,3.21,3.21,0,0,0-2.21-.71,3.16,3.16,0,0,0-2.05.79,2.41,2.41,0,0,0-.95,1.9,4.81,4.81,0,0,0,.28,1.65,5.11,5.11,0,0,1,.27,1.66c0,.42,0,.64.08.67s.11.27.16.75.11,1.35.16,2.64.08,3.4.08,6.35c0,.16,0,.55-.08,1.18s-.11,1.3-.16,2-.1,1.38-.16,2-.08,1-.08,1.19q0,.87,0,1.65a12,12,0,0,1-.2,1.58,4.44,4.44,0,0,0,.23,1.34,5.9,5.9,0,0,0,.64,1.34,3.86,3.86,0,0,0,1,1.07,2,2,0,0,0,1.22.43,4,4,0,0,0,3-1,6.07,6.07,0,0,0,1.34-2.53c.29-1,.55-2.15.79-3.39a12.3,12.3,0,0,1,1.38-3.67c.26-.63.55-1.48.87-2.56s.69-2.18,1.14-3.31.95-2.22,1.5-3.28a7.51,7.51,0,0,1,1.93-2.44,10.93,10.93,0,0,1,1.15,2.44c.34,1,.65,2.07.94,3.2s.53,2.27.71,3.43.33,2.23.44,3.23.3,2,.43,3.24a23.68,23.68,0,0,0,.63,3.47,8,8,0,0,0,1.26,2.76,2.77,2.77,0,0,0,2.33,1.1,4.57,4.57,0,0,0,2.05-.47,18.29,18.29,0,0,0,1.11-2.53c.26-.78.49-1.57.71-2.36s.43-1.59.67-2.41a16.83,16.83,0,0,1,1-2.56c.37-.84.82-1.77,1.34-2.8l1.62-3.16c.55-1.07,1.1-2.13,1.66-3.15l1.53-2.88a13.3,13.3,0,0,1,.52,2.6c.08.85.15,1.69.23,2.53s.17,1.69.28,2.56a11,11,0,0,0,.63,2.56,14.6,14.6,0,0,1,.39,2.72,31.24,31.24,0,0,0,.6,4,11.54,11.54,0,0,0,1.34,3.55,2.84,2.84,0,0,0,2.56,1.54,3.72,3.72,0,0,0,2.56-1,3.5,3.5,0,0,0,1.07-2.76,7.93,7.93,0,0,0-.75-3.31A10.56,10.56,0,0,1,462.63,116.91Z"></path> <path class="cls-1" d="M427.22,91.75a6,6,0,0,0,.83-.08,8.43,8.43,0,0,0,1.26-.27,13.25,13.25,0,0,0,1.26-.44,1.36,1.36,0,0,0,.75-.55l.63-.31a30,30,0,0,1,6.23-2.33,25.39,25.39,0,0,1,6.31-.91,23.55,23.55,0,0,1,3.59.32q2,.31,4,.75c1.34.29,2.59.6,3.75.94s2.08.65,2.76.91a3.37,3.37,0,0,0,1.54-.51,1.45,1.45,0,0,0,.51-1,4.44,4.44,0,0,0-.67-2,3.15,3.15,0,0,0-1.07-1.18L458,84.5a25.93,25.93,0,0,0-5.64-2.09,25.54,25.54,0,0,0-6.59-.91q-8.83,0-13.76,1.85t-6.51,5.25a.83.83,0,0,0-.08.47,3.37,3.37,0,0,0,.56,1.77A1.51,1.51,0,0,0,427.22,91.75Z"></path> <path class="cls-1" d="M491.11,119.67a2.31,2.31,0,0,0-.87-.75l-.87-.35L485.78,121a7,7,0,0,1-4.06,1.11,6.53,6.53,0,0,1-1.26-.24,5.25,5.25,0,0,1-2-1.06,7.78,7.78,0,0,1-1.9-2.49,10.53,10.53,0,0,1-.94-4.57v-.44a3.71,3.71,0,0,1,.07-.67c.69.21,1.29.37,1.82.48a7,7,0,0,0,1.81.08,11.32,11.32,0,0,0,4.22-.91,9.37,9.37,0,0,0,5.05-5.21,9.4,9.4,0,0,0,.67-3.51,7.42,7.42,0,0,0-.51-2.72,6.73,6.73,0,0,0-1.54-2.32,7.61,7.61,0,0,0-2.56-1.66,9.43,9.43,0,0,0-3.59-.63A9,9,0,0,0,476,97.71a12.66,12.66,0,0,0-3.71,3.82,17.93,17.93,0,0,0-2.24,5.33,23.81,23.81,0,0,0-.75,5.87c.05,1.26.14,2.46.27,3.59a13.94,13.94,0,0,0,.79,3.27,12,12,0,0,0,1.66,3,14.46,14.46,0,0,0,3,2.84,18.89,18.89,0,0,0,3.11,1.18,11.33,11.33,0,0,0,3.12.56,16.67,16.67,0,0,0,4.61-.52,10.89,10.89,0,0,0,3.83-2.24,6.92,6.92,0,0,0,1.14-1.31,3.62,3.62,0,0,0,.59-1.85,3.39,3.39,0,0,0-.08-.83A7,7,0,0,1,491.11,119.67Zm-14.52-14a11.45,11.45,0,0,1,.67-1.77,4.45,4.45,0,0,1,.75-1.11,10,10,0,0,0,.71-.78,1.67,1.67,0,0,1,1.15-.79,7,7,0,0,1,1.53-.16,2,2,0,0,1,1.74,1,3.62,3.62,0,0,1,.63,2,4.24,4.24,0,0,1-1.46,3.23,5.91,5.91,0,0,1-4.14,1.34c-.26,0-.62,0-1.07,0a4.68,4.68,0,0,1-1-.12A14.67,14.67,0,0,1,476.59,105.67Z"></path> <path class="cls-1" d="M506.25,91a21.29,21.29,0,0,0,4.14-.86,14.72,14.72,0,0,0,3.94-2,20.76,20.76,0,0,0,3.79-3.47,36.32,36.32,0,0,0,3.75-5.36,5.49,5.49,0,0,0,.86-1.26,3.23,3.23,0,0,0,.48-1.5,2,2,0,0,0-1-1.54,3.82,3.82,0,0,0-2-.59,2.68,2.68,0,0,0-.91.35,3.3,3.3,0,0,0-1.14,1.07,27.32,27.32,0,0,1-5,6.23A10,10,0,0,1,508,84.42a3.82,3.82,0,0,1-2.64-.83,6.85,6.85,0,0,1-1.46-1.89c-.37-.71-.71-1.41-1-2.09a2.75,2.75,0,0,0-1.34-1.42,10.47,10.47,0,0,0-2.61.51,2.07,2.07,0,0,0-1.49,1.93,13.15,13.15,0,0,0,2.64,6.78A10,10,0,0,0,506.25,91Z"></path> <path class="cls-1" d="M522.26,120.54a11,11,0,0,1-1.7-4.38,35.77,35.77,0,0,1-.51-6.5,43,43,0,0,1,.28-4.54q.27-2.64.27-7.29a4.7,4.7,0,0,0-1.26-1.27,2.72,2.72,0,0,0-1.5-.63.28.28,0,0,1-.15,0,.53.53,0,0,0-.16,0,5.22,5.22,0,0,0-2.8.56,2.44,2.44,0,0,0-1.07,1.38,6,6,0,0,0-.19,1.85,6.3,6.3,0,0,1-.28,2q-.8,2.44-2.05,5.6a62.21,62.21,0,0,1-2.76,6,33.77,33.77,0,0,1-3,4.85c-1,1.35-2,2.07-2.8,2.17-.1-1.1-.23-2.72-.39-4.85s-.24-4.45-.24-7a15.55,15.55,0,0,1,.2-2.36,24.61,24.61,0,0,0,.2-3.55,10,10,0,0,1,.23-2.33,9.58,9.58,0,0,0,.24-2.25,2.52,2.52,0,0,0-1.26-2.28,6.31,6.31,0,0,0-2.53-1c-.26,0-.48.11-.67.16l-.51.15a5.43,5.43,0,0,0-.83.36,1.1,1.1,0,0,0-.43.35,16.23,16.23,0,0,0-.79,3.87c-.11,1.31-.16,2.68-.16,4.1v5a14.94,14.94,0,0,1-.16,2.21c0,3.15.09,5.81.28,8a20.28,20.28,0,0,0,1,5.29,5.7,5.7,0,0,0,2.12,3,6.65,6.65,0,0,0,3.67.9,6.17,6.17,0,0,0,4-1.53,17.8,17.8,0,0,0,3.27-3.63,33.86,33.86,0,0,0,2.48-4.3c.71-1.47,1.28-2.66,1.7-3.55l.31-.63c.16,1.26.35,2.48.56,3.67a13.11,13.11,0,0,0,1,3.23,8.13,8.13,0,0,0,1.74,2.48,5.69,5.69,0,0,0,2.8,1.42,8.27,8.27,0,0,1,1.1-.23,4.22,4.22,0,0,0,1-.28,2.16,2.16,0,0,0,.83-.63,2.93,2.93,0,0,0,.51-1.22,5.85,5.85,0,0,0-.71-1.22C522.86,121.26,522.58,120.91,522.26,120.54Z"></path> <path class="cls-1" d="M563.73,81l-3.84-32-6.32,10.6A89.78,89.78,0,0,0,448.4,29.41l1.1,2.79A86.78,86.78,0,0,1,550.94,61.05l-12.37-.24Z"></path> <path class="cls-1" d="M114.23,32.2l1.09-2.79A89.77,89.77,0,0,0,10.16,59.57L3.83,49,0,81,25.15,60.81l-12.36.24A86.77,86.77,0,0,1,114.23,32.2Z"></path> </g> </g> </svg> 